<?xml version="1.0" encoding="utf-8"?>
<!-- Generator: Adobe Illustrator 26.3.1, SVG Export Plug-In . SVG Version: 6.00 Build 0)  -->
<svg version="1.1" id="Capa_1" xmlns="http://www.w3.org/2000/svg" xmlns:xlink="http://www.w3.org/1999/xlink" x="0px" y="0px"
	 viewBox="0 0 146.7 35.3" style="enable-background:new 0 0 146.7 35.3;" xml:space="preserve">
<style type="text/css">
	.st0{clip-path:url(#SVGID_00000063627670814022714540000004391552046596673440_);}
	.st1{fill:#1B71B6;}
	.st2{fill:#72B547;}
	.st3{fill:#188A8A;}
	.st4{fill:#36AEE4;}
	.st5{fill:#EC7420;}
	.st6{fill:#B5BD0E;}
</style>
<g id="Grupo_8095" transform="translate(0 0)">
	<g>
		<defs>
			<rect id="SVGID_1_" y="0" width="146.7" height="35.3"/>
		</defs>
		<clipPath id="SVGID_00000136380829337119128930000000981844306315924381_">
			<use xlink:href="#SVGID_1_"  style="overflow:visible;"/>
		</clipPath>
		<g id="Grupo_8094" style="clip-path:url(#SVGID_00000136380829337119128930000000981844306315924381_);">
			<path id="Trazado_18799" class="st1" d="M21,11.6v10.7c-1.3,0.6-2.7,1.1-4.1,1.4c-1.6,0.3-3.2,0.5-4.8,0.5c-3.9,0-6.9-1-9-3
				S0,16.4,0,12.7c0-3.8,1.1-6.8,3.2-8.9S8.2,0.6,12,0.6c2.4-0.1,4.7,0.5,6.6,1.9c1.6,1.2,2.5,3.1,2.4,5.1V8h-4.6
				c0-1.2-0.4-2.4-1.3-3.2c-1-0.8-2.2-1.2-3.4-1.1C9.8,3.6,8,4.5,6.8,6.1C5.5,8,4.9,10.2,5,12.5c0,2.7,0.6,4.7,1.9,6.1
				c1.5,1.5,3.5,2.2,5.6,2.1c0.6,0,1.3,0,1.9-0.1c0.6-0.1,1.2-0.2,1.8-0.4l0-5h-4.4v-3.6H21z"/>
			<path id="Trazado_18800" class="st1" d="M25.3,23.8V0.9h15.2v3.8H30.2v5.4h9.6v3.7h-9.6V20h10.6v3.8L25.3,23.8z"/>
			<path id="Trazado_18801" class="st1" d="M43.4,16.4h4.8c-0.1,1.2,0.3,2.5,1.1,3.4c0.9,0.8,2.2,1.2,3.4,1.1c1.1,0,2.1-0.3,3-0.9
				c0.7-0.5,1.1-1.4,1.1-2.3c0-1.4-1.8-2.8-5.4-4c-0.2-0.1-0.4-0.1-0.5-0.2s-0.3-0.1-0.5-0.2c-1.5-0.4-3-1.1-4.3-2
				c-0.6-0.5-1.2-1.1-1.5-1.8c-0.4-0.8-0.5-1.6-0.5-2.5c-0.1-1.9,0.8-3.7,2.3-4.9c1.9-1.3,4.1-1.9,6.4-1.8C54.9,0.4,57,1,58.7,2.3
				c1.4,1.2,2.2,3.1,2.1,4.9v0.1h-4.3c0-1-0.4-2-1.2-2.7c-0.8-0.7-1.8-1-2.8-0.9c-1-0.1-1.9,0.2-2.7,0.8c-0.7,0.5-1,1.3-1,2.1
				c0,1.4,1.9,2.7,5.7,3.9c0.1,0,0.2,0.1,0.3,0.1c2.9,1,4.8,1.9,5.7,2.9c1,1.1,1.4,2.5,1.4,3.9c0.1,2-0.8,3.9-2.4,5
				c-2,1.3-4.4,1.9-6.8,1.8c-3,0-5.3-0.6-6.8-1.9c-1.6-1.4-2.4-3.5-2.3-5.6L43.4,16.4z"/>
			<rect id="Rectángulo_1140" x="65.3" y="0.9" class="st1" width="4.9" height="22.9"/>
			<path id="Trazado_18802" class="st1" d="M93.4,17c0,2.1-1,4.1-2.6,5.4c-2,1.3-4.3,2-6.7,1.9c-3.4,0-6-1-7.8-3
				c-1.8-2-2.6-4.9-2.6-8.8c0-3.8,0.9-6.8,2.7-8.8s4.4-3.1,7.8-3.1c2.3-0.1,4.6,0.5,6.5,1.9c1.6,1.2,2.6,3.1,2.6,5.1h-4.5
				c0-1-0.5-2-1.3-2.6c-0.9-0.7-2-1-3.2-1C82.6,3.8,81,4.6,80,6.1c-1,1.4-1.5,3.5-1.5,6.3c0,2.9,0.5,5,1.4,6.4
				c1,1.4,2.6,2.2,4.4,2.1c1.1,0,2.2-0.3,3.1-1.1c0.8-0.7,1.3-1.8,1.3-2.8H93.4z"/>
			<path id="Trazado_18803" class="st1" d="M121.5,23.8V0.9h7.7l4.8,16.5l4.8-16.5h7.9v22.9h-4.5V4.5l-6,19.4h-4.3l-6-19.4v19.4
				H121.5z"/>
			<path id="Trazado_18804" class="st2" d="M117,6.7c0.4,0.5,0.8,1.1,1.1,1.8c1.5,5.2,0,9.4-1.7,11.5c-0.9,1.1-1.9,2-3.1,2.7
				c-3.6,2-7.8,2.2-11.5,0.5c-1.3-0.6-2.5-1.4-3.5-2.5l-0.1,0.5l-0.4-1.7l0.9-0.2l-0.2,0.4c0.7,0.6,1.6,1.1,2.5,1.5
				c2.4,1.1,5,1.6,7.6,1.3c1.3-0.2,2.6-0.6,3.8-1.2c1.1-0.6,2.1-1.3,3-2.3c1.7-1.7,3.2-5.8,2.4-10.1C117.6,8.3,117.3,7.5,117,6.7"/>
			<path id="Trazado_18805" class="st3" d="M102,3.5l-0.7-0.2l0.5-1l0.1,0.2c0,0,0.4-0.2,0.6-0.3c2.5-1.1,5.2-1.5,7.9-1.2
				c1.6,0.2,3.2,0.8,4.6,1.7c1.5,1,2.6,2.4,3.1,4.1c0.5,1.6,0.6,3.3,0.2,5c-0.3,1.6-0.9,3-1.7,4.4c-1.6,2.5-4.7,6.6-13.4,5.5
				c7.6,0.7,10.8-3.6,12.2-5.9c1.3-2.3,2.2-5.7,1.3-8.6c-0.4-1.4-1.3-2.6-2.6-3.4c-1.2-0.8-2.5-1.3-4-1.6c-2.5-0.4-5.1-0.2-7.5,0.7
				C102.5,3,102,3.2,102,3.2L102,3.5z"/>
			<path id="Trazado_18806" class="st3" d="M112,15.8c-2.6,1.9-5.9,2.3-8.9,1c-1.3-0.5-2.3-1.5-3-2.7c-0.8-1.4-0.9-3.2-0.3-4.7
				c0.8-2,2.5-3.6,5.6-4.4c3-0.7,6.7,0.2,7.3,3.7c0.7,3.9-2.6,5.6-3.5,6l0.2,0.2l-0.8,0l0.1-0.6c0,0,0.2,0.2,0.2,0.2
				c0.5-0.3,3.4-2.1,2.7-5.5c-0.7-3.5-8-4-10.6,0.9c-0.6,1.2-0.6,2.6,0.1,3.8c0.5,1,1.3,1.9,2.4,2.4C106.3,17.3,109.4,17.2,112,15.8
				"/>
			<path id="Trazado_18807" class="st4" d="M98,15.4c-0.2-0.3-0.4-0.7-0.6-1.1c-0.5-1.1-0.7-2.3-0.6-3.5c0.2-1.9,1-3.7,2.4-5
				c2.1-2,4.9-3.2,7.8-3.3c5.4,0,6.9,3.6,7.1,4.3c0.1,0.3,0.1,0.7,0.2,1.1c0.1-0.1,0.2-0.2,0.3-0.2L114.1,9l-0.7-0.6
				c0,0,0.2-0.1,0.4-0.2c-0.1-0.4-0.2-0.8-0.3-1.1c-0.4-0.8-1-1.5-1.7-2c-0.5-0.3-2.4-1.8-7.1-0.8c-1.8,0.4-3.4,1.2-4.7,2.5
				c-1.2,1.1-2.1,2.6-2.5,4.2c-0.2,1.1-0.2,2.2,0.1,3.3C97.7,14.6,97.9,15,98,15.4"/>
			<path id="Trazado_18808" class="st5" d="M96.9,8.5c-3.3,4.2,0.1,9.4,6.1,10.9c6.5,1.3,8.6-1.6,9.6-2.4c0.3-0.2,0.5-0.5,0.7-0.8
				c-0.1-0.1-0.1-0.2-0.2-0.2l0.7-0.1l0,1c0,0,0,0-0.1-0.2c-0.2,0.3-0.3,0.5-0.6,0.8c-0.9,1.1-3.8,4.5-10.5,3.3
				C97.3,19.3,91.6,14.2,96.9,8.5"/>
			<path id="Trazado_18809" class="st2" d="M105.4,6.9l0.1,1l-0.8-0.2c0,0,0.1-0.1,0.2-0.2c-0.9-1.1-2.1-1.9-3.4-2.4
				c-0.7-0.2-1.4-0.3-2.1-0.1c-0.6,0.2-1.1,0.6-1.4,1.2c-1.7,3,0.3,8.8,2.8,10.6c-3-2-4.7-5.4-4.7-9.1c0-0.8,0.2-1.5,0.6-2.2
				c0.4-0.8,1.2-1.3,2-1.5c1-0.2,2.1-0.2,3.1,0.2c0.9,0.3,1.6,0.8,2.3,1.4c0.5,0.4,0.9,0.9,1.2,1.4C105.3,7,105.4,7,105.4,6.9"/>
			<path id="Trazado_18810" class="st5" d="M119.7,11.7c0-0.4-0.1-0.8-0.1-1.2c-0.2-1.1-0.7-2.1-1.5-2.8c-1-0.9-2.8-1.1-4.6-0.9
				c-2,0.3-3.9,0.9-5.7,1.8c-0.5,0.2-0.9,0.5-1.3,0.8c-0.4,0.3-0.8,0.6-1.2,0.9c-0.7,0.6-1.3,1.3-1.8,2.1c-0.9,1.3-1.5,2.8-1.6,4.4
				c0,0.4,0,0.7,0.1,1.1c0.2,0,0.4,0,0.4,0l-0.5,0.5l-0.9-0.6c0,0,0.2,0,0.4,0.1c-0.1-0.3-0.2-0.7-0.2-1c-0.1-1.8,0.4-3.5,1.3-5
				c0.5-0.9,1.2-1.7,1.9-2.5c0.4-0.4,0.8-0.7,1.3-1.1c0.5-0.3,1-0.6,1.5-0.9c1.9-1,4-1.6,6.2-1.8c1-0.1,2,0,3,0.3
				c1.6,0.3,2.8,1.5,3.2,3c0.1,0.5,0.2,1,0.2,1.5C119.8,10.9,119.8,11.3,119.7,11.7"/>
			<path id="Trazado_18811" class="st4" d="M104.8,13.6l0.7-1.9l1.7,0.9l-0.7,0.3c0,0,0.4,0.8,0.6,1.1c0.7,1.2,1.6,2.2,2.7,3.1
				c1.5,1,3.2,1.6,5,1.7c1.5,0,2.8-0.6,3.7-1.8c0.6-0.8,0.9-1.8,0.9-2.8c0-0.4,0-0.8-0.1-1.1c0.1,0.4,0.2,0.7,0.3,1.1
				c0.2,1.1,0,2.2-0.6,3.2c-0.4,0.7-0.9,1.3-1.6,1.7c-0.8,0.5-1.7,0.8-2.6,0.8c-2.1,0.1-4.1-0.5-5.8-1.7c-0.9-0.6-1.6-1.4-2.2-2.3
				c-0.3-0.4-0.5-0.8-0.7-1.2c-0.2-0.4-0.6-1.3-0.6-1.3L104.8,13.6z"/>
			<path id="Trazado_18812" class="st6" d="M108,13l-0.1-1.5l1.1,0.1l-0.3,0.4c0,0,0,0,0,0c0.3,0.3,0.6,0.5,0.9,0.7
				c0.3,0.2,0.7,0.4,1.1,0.6c0.4,0.1,0.9,0.2,1.3,0.2c0.9,0,1.8-0.5,2.4-1.2c0.3-0.4,0.6-0.9,0.7-1.4c0.1-0.2,0.2-0.5,0.2-0.8
				c0-0.3,0-0.5,0-0.8c-0.1-1.2-0.4-2.3-0.9-3.4c-1.1-2.1-2.9-3.7-5.2-4.3c-0.9-0.3-1.9-0.5-2.9-0.6c-0.5,0-1.1-0.1-1.6,0
				c-0.4,0-0.9,0.1-1.3,0.2c-2,0.4-3.9,1.4-5.4,2.8c0,0,1.1-2.2,5-3.5c0.5-0.2,1.1-0.3,1.6-0.4c0.6-0.1,1.2-0.1,1.8-0.1
				c1.1,0,2.2,0.2,3.2,0.5c1.3,0.3,2.4,0.9,3.5,1.7c2.3,1.7,3.6,4.4,3.6,7.2c0,0.3,0,0.7-0.1,1c-0.1,0.3-0.2,0.7-0.3,1
				c-0.2,0.6-0.6,1.2-1,1.7c-0.4,0.5-1,0.9-1.6,1.1c-0.6,0.2-1.2,0.3-1.8,0.3c-0.6,0-1.1-0.1-1.6-0.4c-0.5-0.2-0.9-0.5-1.2-0.8
				c-0.3-0.2-0.5-0.5-0.7-0.7c0,0-0.1-0.1-0.1-0.1L108,13z"/>
			<path id="Trazado_18813" class="st1" d="M64.5,33.2c-0.6,0.2-1.2,0.3-1.9,0.3c-1.6,0.1-3-1-3.1-2.6c0-0.2,0-0.3,0-0.5
				c-0.1-1.7,1.3-3.1,3-3.2c0.1,0,0.2,0,0.3,0c0.5,0,1,0.1,1.5,0.3l-0.2,0.6c-0.4-0.2-0.9-0.3-1.3-0.3c-1.3-0.1-2.4,0.8-2.5,2.1
				c0,0.1,0,0.2,0,0.4c-0.1,1.2,0.8,2.3,2,2.5c0.1,0,0.2,0,0.4,0c0.4,0,0.7,0,1-0.2v-1.8h-1.2v-0.6h2V33.2z"/>
			<path id="Trazado_18814" class="st1" d="M65.7,30.4c0-0.5,0-1,0-1.4h0.7l0,0.9h0c0.2-0.5,0.6-0.9,1.2-1c0.1,0,0.2,0,0.2,0v0.8
				c-0.1,0-0.2,0-0.3,0c-0.6,0-1,0.5-1.1,1c0,0.1,0,0.2,0,0.4v2.3h-0.8L65.7,30.4z"/>
			<path id="Trazado_18815" class="st1" d="M72.3,32.2c0,0.5,0,0.9,0,1.2h-0.7l0-0.7h0c-0.3,0.5-0.9,0.8-1.5,0.8
				c-0.7,0-1.5-0.4-1.5-1.9V29h0.8v2.4c0,0.8,0.3,1.4,1,1.4c0.5,0,0.9-0.3,1.1-0.7c0-0.1,0.1-0.3,0.1-0.4V29h0.8L72.3,32.2z"/>
			<path id="Trazado_18816" class="st1" d="M73.6,30.5c0-0.6,0-1,0-1.4h0.7l0,0.7h0c0.3-0.5,0.9-0.9,1.6-0.8c1.1,0.1,1.9,1,1.9,2.1
				c0,0,0,0.1,0,0.1c0.2,1.1-0.6,2.2-1.8,2.3c-0.1,0-0.1,0-0.2,0c-0.5,0-1-0.2-1.3-0.7h0v2.4h-0.8L73.6,30.5z M74.4,31.6
				c0,0.1,0,0.2,0,0.3c0.1,0.5,0.6,0.9,1.2,0.9c0.8,0,1.3-0.7,1.3-1.7c0-0.9-0.5-1.6-1.3-1.6c-0.6,0-1.1,0.4-1.2,1
				c0,0.1-0.1,0.2-0.1,0.3L74.4,31.6z"/>
			<path id="Trazado_18817" class="st1" d="M82.8,31.2c0.1,1.2-0.8,2.2-1.9,2.3c-0.1,0-0.2,0-0.2,0c-1.1,0-2.1-0.9-2.1-2.1
				c0-0.1,0-0.1,0-0.2c-0.1-1.2,0.8-2.2,1.9-2.3c0.1,0,0.2,0,0.2,0c1.1,0,2.1,0.9,2.1,2C82.8,31.1,82.8,31.1,82.8,31.2 M79.3,31.2
				c0,1,0.6,1.7,1.3,1.7s1.3-0.7,1.3-1.7c0-0.7-0.4-1.7-1.3-1.7S79.3,30.4,79.3,31.2"/>
			<path id="Trazado_18818" class="st1" d="M89.5,27v5.3c0,0.4,0,0.8,0,1.1h-0.7l0-0.8h0c-0.3,0.6-0.9,0.9-1.5,0.9
				c-1.1-0.1-1.9-1-1.9-2.1c0,0,0-0.1,0-0.1c-0.1-1.2,0.7-2.2,1.8-2.3c0,0,0.1,0,0.1,0c0.5,0,1,0.2,1.3,0.7h0V27H89.5z M88.7,30.8
				c0-0.1,0-0.2,0-0.3c-0.1-0.5-0.6-0.9-1.2-0.9c-0.8,0-1.3,0.7-1.3,1.7c0,0.9,0.4,1.6,1.3,1.6c0.6,0,1.1-0.4,1.2-0.9
				c0-0.1,0-0.2,0-0.3L88.7,30.8z"/>
			<path id="Trazado_18819" class="st1" d="M91.2,31.4c-0.1,0.8,0.5,1.5,1.3,1.5c0.1,0,0.1,0,0.2,0c0.4,0,0.8-0.1,1.2-0.2l0.1,0.6
				c-0.5,0.2-1,0.3-1.5,0.3c-1.1,0.1-2.1-0.8-2.2-1.9c0-0.1,0-0.2,0-0.3c-0.1-1.2,0.7-2.2,1.9-2.4c0.1,0,0.1,0,0.2,0
				c1,0,1.8,0.9,1.8,1.9c0,0.1,0,0.1,0,0.2c0,0.1,0,0.2,0,0.4L91.2,31.4z M93.6,30.8c0.1-0.6-0.3-1.2-1-1.3c0,0-0.1,0-0.1,0
				c-0.7,0.1-1.2,0.6-1.2,1.3H93.6z"/>
			<rect id="Rectángulo_1141" x="97.3" y="27.3" class="st1" width="0.8" height="6.1"/>
			<path id="Trazado_18820" class="st1" d="M99.5,30.2c0-0.5,0-0.8,0-1.2h0.7l0,0.7h0c0.3-0.5,0.9-0.8,1.4-0.8
				c0.6,0,1.5,0.4,1.5,1.9v2.6h-0.8v-2.5c0-0.7-0.3-1.3-1-1.3c-0.6,0-1.1,0.6-1.1,1.2v2.6h-0.8L99.5,30.2z"/>
			<path id="Trazado_18821" class="st1" d="M104.7,29l0.9,2.5c0.1,0.4,0.3,0.7,0.4,1.1h0c0.1-0.4,0.2-0.7,0.4-1.1l0.9-2.5h0.8
				l-1.7,4.4h-0.8l-1.7-4.4L104.7,29z"/>
			<path id="Trazado_18822" class="st1" d="M109.1,31.4c-0.1,0.8,0.5,1.4,1.3,1.5c0.1,0,0.2,0,0.2,0c0.4,0,0.8-0.1,1.2-0.2l0.1,0.6
				c-0.5,0.2-1,0.3-1.5,0.3c-1.1,0.1-2.1-0.8-2.2-1.9c0-0.1,0-0.2,0-0.3c-0.1-1.2,0.7-2.2,1.9-2.4c0.1,0,0.1,0,0.2,0
				c1,0,1.8,0.9,1.8,1.9c0,0.1,0,0.1,0,0.2c0,0.1,0,0.2,0,0.4L109.1,31.4z M111.4,30.8c0.1-0.6-0.3-1.2-1-1.3c0,0-0.1,0-0.1,0
				c-0.7,0-1.2,0.6-1.2,1.3H111.4z"/>
			<path id="Trazado_18823" class="st1" d="M113.1,32.6c0.3,0.2,0.7,0.3,1,0.3c0.6,0,0.9-0.3,0.9-0.7c0-0.4-0.2-0.6-0.8-0.8
				c-0.8-0.3-1.2-0.7-1.2-1.2c0-0.7,0.7-1.3,1.4-1.3c0,0,0.1,0,0.1,0c0.4,0,0.7,0.1,1.1,0.3l-0.2,0.6c-0.3-0.2-0.6-0.3-0.9-0.3
				c-0.5,0-0.7,0.3-0.7,0.6c0,0.4,0.3,0.5,0.8,0.7c0.8,0.3,1.2,0.7,1.2,1.3c0,0.8-0.6,1.3-1.6,1.3c-0.4,0-0.9-0.1-1.2-0.3
				L113.1,32.6z"/>
			<path id="Trazado_18824" class="st1" d="M117.7,27.8V29h1.1v0.6h-1.1V32c0,0.5,0.2,0.9,0.6,0.9c0.2,0,0.3,0,0.5-0.1l0,0.6
				c-0.2,0.1-0.5,0.1-0.7,0.1c-0.3,0-0.6-0.1-0.9-0.3c-0.2-0.3-0.4-0.7-0.3-1.1v-2.4h-0.7V29h0.7v-1L117.7,27.8z"/>
			<path id="Trazado_18825" class="st1" d="M120.7,27.8c0,0.3-0.2,0.5-0.5,0.5c-0.3,0-0.5-0.2-0.5-0.5c0-0.3,0.2-0.5,0.5-0.5
				c0,0,0,0,0,0C120.4,27.3,120.7,27.5,120.7,27.8C120.7,27.8,120.7,27.8,120.7,27.8 M119.8,29h0.8v4.4h-0.8V29z"/>
			<path id="Trazado_18826" class="st1" d="M125.7,29c0,0.3,0,0.7,0,1.2v2.5c0.1,0.7-0.1,1.5-0.6,2c-0.4,0.4-1,0.6-1.6,0.5
				c-0.5,0-1-0.1-1.5-0.4l0.2-0.6c0.4,0.2,0.8,0.3,1.3,0.3c0.8,0,1.4-0.4,1.4-1.5v-0.5h0c-0.3,0.5-0.8,0.8-1.4,0.7
				c-1.1,0-1.9-1-1.9-2c0,0,0-0.1,0-0.1c-0.1-1.2,0.7-2.2,1.9-2.3c0,0,0.1,0,0.1,0c0.6,0,1.1,0.3,1.4,0.8h0l0-0.7L125.7,29z
				 M124.9,30.8c0-0.1,0-0.2,0-0.4c-0.1-0.5-0.6-0.8-1.1-0.8c-0.8,0-1.3,0.6-1.3,1.7c0,0.9,0.4,1.6,1.3,1.6c0.5,0,0.9-0.3,1.1-0.8
				c0-0.1,0.1-0.3,0.1-0.4L124.9,30.8z"/>
			<path id="Trazado_18827" class="st1" d="M129.4,33.4l-0.1-0.6h0c-0.3,0.4-0.8,0.7-1.3,0.6c-0.7,0.1-1.3-0.5-1.3-1.2
				c0,0,0-0.1,0-0.1c0-1.1,0.9-1.6,2.6-1.6v-0.1c0.1-0.5-0.3-0.9-0.8-1c-0.1,0-0.2,0-0.2,0c-0.4,0-0.8,0.1-1.1,0.3l-0.2-0.5
				c0.4-0.3,0.9-0.4,1.4-0.4c1.3,0,1.7,0.9,1.7,1.8v1.6c0,0.4,0,0.7,0.1,1H129.4z M129.3,31.2c-0.9,0-1.9,0.1-1.9,1
				c0,0.4,0.3,0.7,0.6,0.8c0,0,0.1,0,0.1,0c0.5,0,0.9-0.3,1.1-0.7c0-0.1,0-0.2,0-0.3V31.2z"/>
			<path id="Trazado_18828" class="st1" d="M134.4,33.3c-0.4,0.2-0.8,0.3-1.3,0.2c-1.1,0.1-2.1-0.8-2.2-2c0-0.1,0-0.2,0-0.3
				c-0.1-1.2,0.9-2.3,2.1-2.3c0.1,0,0.2,0,0.2,0c0.4,0,0.8,0.1,1.1,0.2l-0.2,0.6c-0.3-0.1-0.6-0.2-0.9-0.2c-0.8,0-1.5,0.6-1.6,1.5
				c0,0.1,0,0.1,0,0.2c-0.1,0.8,0.5,1.6,1.4,1.6c0.1,0,0.1,0,0.2,0c0.3,0,0.7-0.1,1-0.2L134.4,33.3z"/>
			<path id="Trazado_18829" class="st1" d="M136.3,27.8c0,0.3-0.2,0.5-0.4,0.5c0,0,0,0-0.1,0c-0.3,0-0.5-0.2-0.5-0.5c0,0,0,0,0,0
				c0-0.3,0.2-0.5,0.5-0.5c0,0,0,0,0,0C136,27.3,136.3,27.5,136.3,27.8C136.3,27.8,136.3,27.8,136.3,27.8 M135.4,29h0.8v4.4h-0.8V29
				z"/>
			<path id="Trazado_18830" class="st1" d="M141.5,31.2c0.1,1.2-0.8,2.2-1.9,2.3c-0.1,0-0.2,0-0.2,0c-1.1,0-2.1-0.9-2.1-2
				c0-0.1,0-0.1,0-0.2c-0.1-1.2,0.8-2.2,1.9-2.3c0.1,0,0.2,0,0.2,0c1.1,0,2.1,0.9,2.1,2C141.5,31.1,141.5,31.1,141.5,31.2 M138,31.2
				c0,1,0.6,1.7,1.3,1.7c0.8,0,1.3-0.7,1.3-1.7c0-0.7-0.4-1.7-1.3-1.7S138,30.4,138,31.2 M140.5,27.2l-1.1,1.3h-0.6l0.8-1.3H140.5z"
				/>
			<path id="Trazado_18831" class="st1" d="M142.5,30.2c0-0.5,0-0.8,0-1.2h0.7l0,0.7h0c0.3-0.5,0.8-0.8,1.4-0.8
				c0.6,0,1.5,0.4,1.5,1.9v2.6h-0.8v-2.5c0-0.7-0.3-1.3-1-1.3c-0.5,0-0.9,0.3-1.1,0.8c0,0.1-0.1,0.2-0.1,0.4v2.6h-0.8L142.5,30.2z"
				/>
		</g>
	</g>
</g>
</svg>
