<svg id="Grupo_8111" data-name="Grupo 8111" xmlns="http://www.w3.org/2000/svg" width="454.76" height="297.13" viewBox="0 0 454.76 297.13">
  <path id="Trazado_18676" data-name="Trazado 18676" d="M460.222,119.159c-24.56-31.593-57.365-19.409-75.4-35.717-20.932-18.924-57.333-44.018-101.2-41.668-61.292,3.281-94.268,34.765-111.119,50.266-19.967,18.371-56.009,13.493-74.078,33.733-25.335,28.374-17.935,65.157-22.488,89.29-4.366,23.126-27.2,38.762-29.1,71.433-1.212,20.821,18.886,52.253,42.331,52.253H451.624c26.525,0,47.875-35,48.285-71.434.553-49.433-24.388-57.768-31.749-80.032C460.984,165.578,474.255,137.209,460.222,119.159Z" transform="translate(-46.786 -41.62)" fill="#15a3e1" opacity="0.22"/>
  <rect id="Rectángulo_1068" data-name="Rectángulo 1068" width="64.776" height="30.868" transform="translate(183.35 14.868)" fill="#5bcfe1"/>
  <rect id="Rectángulo_1069" data-name="Rectángulo 1069" width="40.456" height="2.221" transform="translate(195.509 20.364)" fill="#2c9eb6"/>
  <rect id="Rectángulo_1070" data-name="Rectángulo 1070" width="40.456" height="2.222" transform="translate(195.509 28.899)" fill="#2c9eb6"/>
  <rect id="Rectángulo_1071" data-name="Rectángulo 1071" width="40.456" height="2.221" transform="translate(195.509 37.435)" fill="#2c9eb6"/>
  <path id="Trazado_18677" data-name="Trazado 18677" d="M273.783,60.614a3.018,3.018,0,1,0,3.019,3.018A3.016,3.016,0,0,0,273.783,60.614Z" transform="translate(-52.528 -42.107)" fill="#a8ebf7"/>
  <path id="Trazado_18678" data-name="Trazado 18678" d="M260.122,69.948a3.019,3.019,0,1,0,2.134.884A3.024,3.024,0,0,0,260.122,69.948Z" transform="translate(-52.178 -42.347)" fill="#a8ebf7"/>
  <path id="Trazado_18679" data-name="Trazado 18679" d="M274.8,78.519a3.016,3.016,0,1,0,2.134.883A3.017,3.017,0,0,0,274.8,78.519Z" transform="translate(-52.555 -42.566)" fill="#a8ebf7"/>
  <path id="Trazado_18680" data-name="Trazado 18680" d="M388.438,66.041a59.358,59.358,0,1,0,41.971,17.385A59.357,59.357,0,0,0,388.438,66.041Z" transform="translate(-54.024 -42.246)" fill="#2692e2"/>
  <path id="Trazado_18681" data-name="Trazado 18681" d="M409.325,143.9c-.43.337-6.167,6.069-9.975,5.685-1.512-.152-1.937-2.724-3.433-3a7.246,7.246,0,0,0-6.756,2.466h0c-.89,1.212.109,3.036-.213,4.505-.388,1.77-1.845,3.239-2.038,5.04-.376,3.536-1.046,8.415,1.824,10.511.845.618,2.077-.6,3.11-.429,1.656.273,2.868,2.619,4.505,2.252,2.086-.466,2.372-3.619,3.968-5.04,1.787-1.59,4.614-1.892,6.115-3.754s.97-4.817,2.359-6.757c1.454-2.03,3.9-3.119,5.9-4.613,1.224-.913,3.757-1.958,3.538-3.432C417.593,143.053,410.834,142.724,409.325,143.9Z" transform="translate(-55.498 -44.228)" fill="#46ded5"/>
  <path id="Trazado_18682" data-name="Trazado 18682" d="M395.347,112.721c-1.63.112-2.478,2.137-3.792,3.11-1.9,1.41-5.965,1.575-5.915,3.943.035,1.656,2.608,2.822,4.247,2.578,2.585-.384,3.081-4.355,5.233-5.84,1.16-.8,3.816-.113,3.944-1.516C399.2,113.549,396.8,112.621,395.347,112.721Z" transform="translate(-55.474 -43.443)" fill="#46ded5"/>
  <path id="Trazado_18683" data-name="Trazado 18683" d="M379.986,71.494c-.424-1.453.338-3.236.742-4.848a59.362,59.362,0,0,0-47.035,36.178c2.7-.779,6.072-4.048,8.827-3.268,2.89.82,3.509,5.463,6.371,6.371a6.218,6.218,0,0,0,4.4-.759c1.414-.691,1.99-2.7,3.488-3.184,1.7-.55,3.6.117,5.309.606,3.174.908,5.663,4.577,8.949,4.247,4.023-.4,4.565-4.022,3.943-6.825-.718-3.246-5.3-5.751-4.4-8.949.44-1.551,3.174-1.254,4.1-2.578.561-.807-.13-2.233.607-2.882.913-.806,2.432-.158,3.64-.3,3.158-.38,5.935-4.266,5.764-6.976C384.514,75.564,380.756,74.149,379.986,71.494Z" transform="translate(-54.142 -42.262)" fill="#46ded5"/>
  <path id="Trazado_18684" data-name="Trazado 18684" d="M357.066,149.02c-1.052.074-1.989,1.067-3.032.911-1.444-.216-2.287-1.889-3.641-2.427-2.24-.891-4.834-.48-7.129-1.213-1.455-.466-2.646-2.215-4.1-2.16a1.83,1.83,0,0,0-.3.035c-1.438.3-1.681,2.49-2.881,3.338a7.806,7.806,0,0,1-2.867,1.1,59.357,59.357,0,0,0,18.432,25.144,16.3,16.3,0,0,0,2.788-6.221c.609-2.4-1.591-5.225-.454-7.431,1.31-2.545,5.846-2.074,7.28-4.55C363.584,151.361,360.746,148.763,357.066,149.02Z" transform="translate(-54.127 -44.249)" fill="#46ded5"/>
  <path id="Trazado_18685" data-name="Trazado 18685" d="M426.634,164.629c-2.918,2.346-5.506,5.609-6.369,9.252a15.487,15.487,0,0,0-.434,5.63,59.357,59.357,0,0,0,19.412-17.486,11.028,11.028,0,0,0-4.419-.733A14.247,14.247,0,0,0,426.634,164.629Z" transform="translate(-56.348 -44.689)" fill="#46ded5"/>
  <path id="Trazado_18686" data-name="Trazado 18686" d="M433.231,98.287c-2,2.029-4.583,4.284-4.7,7.129-.159,3.8,4.9,6.251,5.461,10.011.4,2.708-.948,5.4-1.669,8.039-1.608,5.89.594,7.549,4.4,5.309,1.293-.761,2.306-2.213,3.793-2.427,1.615-.233,3.088,1.614,4.7,1.365a9.161,9.161,0,0,0,5.082-2.961,59.364,59.364,0,0,0-9.382-30.736A18.927,18.927,0,0,0,433.231,98.287Z" transform="translate(-56.574 -42.964)" fill="#46ded5"/>
  <path id="Trazado_18687" data-name="Trazado 18687" d="M345.4,122.665c-1.636-.8-4.349-1.291-5.46.151-.951,1.234.16,3.281,1.061,4.55,1.04,1.463,2.764,3.059,4.551,2.883a3.8,3.8,0,0,0,3.184-3.034C348.9,125.34,347.089,123.49,345.4,122.665Z" transform="translate(-54.293 -43.679)" fill="#46ded5"/>
  <path id="Trazado_18688" data-name="Trazado 18688" d="M410.83,78.961c-1.735.833-3.916,3.239-3,4.934s3.991.914,5.793.214c1.434-.559,2.858-2.639,2.252-3.969C415.211,78.692,412.344,78.234,410.83,78.961Z" transform="translate(-56.037 -42.569)" fill="#46ded5"/>
  <rect id="Rectángulo_1072" data-name="Rectángulo 1072" width="204.382" height="134.695" transform="translate(132.371 52.751)" fill="#f5829c"/>
  <rect id="Rectángulo_1073" data-name="Rectángulo 1073" width="130.72" height="81.144" transform="translate(139.153 71.225)" fill="#ffbdbc"/>
  <path id="Trazado_18689" data-name="Trazado 18689" d="M189.6,158.118a6.447,6.447,0,0,0,2.607.616c3.806-.071,5.631-6.753,9.426-6.448,3.108.249,3.746,5.72,6.78,6.448,2.069.5,2.836-1.589,4.878-.992,2.588.756,2.875,4.874,5.539,5.291,6.7,1.048,11.586-10.22,18.354-10.582,4.259-.228,6.655,6.083,10.874,5.456,5.442-.811,7.5-10.233,12.938-11.079,1.316-.206,2.312,1.515,3.637,1.654,3.515.37,11.116-10.641,16.206-10.913,2.8-.15,8.919,7.7,12.566,6.945,7.51-1.544,21.681-14.535,26.916-19.534V114.72H189.6Z" transform="translate(-50.447 -43.495)" fill="#e26381"/>
  <rect id="Rectángulo_1074" data-name="Rectángulo 1074" width="204.382" height="11.459" transform="translate(132.371 52.751)" fill="#e26381"/>
  <rect id="Rectángulo_1075" data-name="Rectángulo 1075" width="30.867" height="19.877" transform="translate(139.153 159.619)" fill="#e26381"/>
  <rect id="Rectángulo_1076" data-name="Rectángulo 1076" width="38.351" height="2.572" transform="translate(176.568 159.619)" fill="#e26381"/>
  <rect id="Rectángulo_1077" data-name="Rectángulo 1077" width="34.726" height="2.573" transform="translate(176.568 176.924)" fill="#e26381"/>
  <rect id="Rectángulo_1078" data-name="Rectángulo 1078" width="20.111" height="2.572" transform="translate(176.568 167.804)" fill="#e26381"/>
  <rect id="Rectángulo_1079" data-name="Rectángulo 1079" width="13.157" height="2.573" transform="translate(219.3 176.924)" fill="#e26381"/>
  <path id="Trazado_18690" data-name="Trazado 18690" d="M361.211,185.348a19.591,19.591,0,1,0,13.856,5.738A19.593,19.593,0,0,0,361.211,185.348Z" transform="translate(-54.345 -45.306)" fill="#de546e"/>
  <path id="Trazado_18691" data-name="Trazado 18691" d="M361.459,195.021a10.169,10.169,0,1,0,10.17,10.168A10.169,10.169,0,0,0,361.459,195.021Z" transform="translate(-54.593 -45.554)" fill="#f58e9a"/>
  <rect id="Rectángulo_1080" data-name="Rectángulo 1080" width="41.624" height="40.455" transform="translate(288.58 71.225)" fill="#ffbdbc"/>
  <rect id="Rectángulo_1081" data-name="Rectángulo 1081" width="48.172" height="3.274" transform="translate(282.033 116.591)" fill="#e26381"/>
  <rect id="Rectángulo_1082" data-name="Rectángulo 1082" width="29.57" height="3.274" transform="translate(300.635 123.784)" fill="#e26381"/>
  <rect id="Rectángulo_1083" data-name="Rectángulo 1083" width="19.152" height="3.274" transform="translate(311.053 132.135)" fill="#e26381"/>
  <rect id="Rectángulo_1084" data-name="Rectángulo 1084" width="0.703" height="23.665" transform="translate(151.496 71.235)" fill="#ffbdbc"/>
  <rect id="Rectángulo_1085" data-name="Rectángulo 1085" width="0.7" height="30.563" transform="translate(166.417 71.235)" fill="#ffbdbc"/>
  <rect id="Rectángulo_1086" data-name="Rectángulo 1086" width="0.7" height="23.665" transform="translate(181.338 71.235)" fill="#ffbdbc"/>
  <rect id="Rectángulo_1087" data-name="Rectángulo 1087" width="0.702" height="26.822" transform="translate(196.26 71.236)" fill="#ffbdbc"/>
  <rect id="Rectángulo_1088" data-name="Rectángulo 1088" width="0.703" height="19.28" transform="translate(211.18 71.235)" fill="#ffbdbc"/>
  <rect id="Rectángulo_1089" data-name="Rectángulo 1089" width="0.7" height="11.46" transform="translate(226.101 71.235)" fill="#ffbdbc"/>
  <rect id="Rectángulo_1090" data-name="Rectángulo 1090" width="0.7" height="17.19" transform="translate(241.023 71.235)" fill="#ffbdbc"/>
  <rect id="Rectángulo_1091" data-name="Rectángulo 1091" width="0.703" height="9.747" transform="translate(255.899 71.235)" fill="#ffbdbc"/>
  <path id="Trazado_18692" data-name="Trazado 18692" d="M202.823,142.44a1.4,1.4,0,1,0,1.4,1.4A1.4,1.4,0,0,0,202.823,142.44Z" transform="translate(-50.75 -44.205)" fill="#ffbdbc"/>
  <path id="Trazado_18693" data-name="Trazado 18693" d="M218.063,149.04a1.4,1.4,0,1,0,1.4,1.4A1.4,1.4,0,0,0,218.063,149.04Z" transform="translate(-51.141 -44.375)" fill="#ffbdbc"/>
  <path id="Trazado_18694" data-name="Trazado 18694" d="M233.3,142.68a1.4,1.4,0,1,0,1.4,1.4A1.4,1.4,0,0,0,233.3,142.68Z" transform="translate(-51.532 -44.211)" fill="#ffbdbc"/>
  <path id="Trazado_18695" data-name="Trazado 18695" d="M248.423,146.04a1.4,1.4,0,1,0,1.4,1.4A1.4,1.4,0,0,0,248.423,146.04Z" transform="translate(-51.92 -44.298)" fill="#ffbdbc"/>
  <path id="Trazado_18696" data-name="Trazado 18696" d="M263.9,137.88a1.4,1.4,0,1,0,1.4,1.4A1.4,1.4,0,0,0,263.9,137.88Z" transform="translate(-52.317 -44.088)" fill="#ffbdbc"/>
  <path id="Trazado_18697" data-name="Trazado 18697" d="M279.143,129a1.4,1.4,0,1,0,1.4,1.4A1.4,1.4,0,0,0,279.143,129Z" transform="translate(-52.707 -43.861)" fill="#ffbdbc"/>
  <path id="Trazado_18698" data-name="Trazado 18698" d="M294.383,134.295a1.4,1.4,0,1,0,1.4,1.4A1.4,1.4,0,0,0,294.383,134.295Z" transform="translate(-53.098 -43.996)" fill="#ffbdbc"/>
  <path id="Trazado_18699" data-name="Trazado 18699" d="M309.743,126.305a1.4,1.4,0,1,0,1.4,1.4A1.4,1.4,0,0,0,309.743,126.305Z" transform="translate(-53.492 -43.792)" fill="#ffbdbc"/>
  <path id="Trazado_18700" data-name="Trazado 18700" d="M148.338,117.536c-17.754,0-16.79,27.169,0,42.349C165.08,144.565,166.092,117.536,148.338,117.536Z" transform="translate(-49.057 -43.567)" fill="#6457db"/>
  <path id="Trazado_18701" data-name="Trazado 18701" d="M148.5,124.766a6.57,6.57,0,1,0,4.644,1.924A6.563,6.563,0,0,0,148.5,124.766Z" transform="translate(-49.225 -43.752)" fill="#b2abff"/>
  <rect id="Rectángulo_1092" data-name="Rectángulo 1092" width="9.365" height="40.935" transform="translate(251.987 220.804)" fill="#ff5280"/>
  <rect id="Rectángulo_1093" data-name="Rectángulo 1093" width="9.365" height="31.17" transform="translate(267.705 230.57)" fill="#ff5280"/>
  <rect id="Rectángulo_1094" data-name="Rectángulo 1094" width="9.365" height="47.357" transform="translate(283.424 214.382)" fill="#ff5280"/>
  <rect id="Rectángulo_1095" data-name="Rectángulo 1095" width="9.365" height="36.521" transform="translate(299.142 225.218)" fill="#ff5280"/>
  <rect id="Rectángulo_1096" data-name="Rectángulo 1096" width="9.365" height="61.538" transform="translate(314.86 200.202)" fill="#ff5280"/>
  <path id="Trazado_18702" data-name="Trazado 18702" d="M375.85,59.6a.251.251,0,0,0-.047,0l-7.861-1.5a5.348,5.348,0,0,1,1.485,2.824c-17.943,4.532-29.312,14.582-38.748,26.16a.351.351,0,1,0,.544.445c9.373-11.5,20.558-21.407,38.284-25.9a5.178,5.178,0,0,1-.551,2.591l6.9-3.917.054-.009a.35.35,0,0,0,.242-.16l.619-.351-.741-.141A.356.356,0,0,0,375.85,59.6Z" transform="translate(-54.063 -42.043)" fill="#397eff"/>
  <path id="Trazado_18703" data-name="Trazado 18703" d="M445.384,165.639a.352.352,0,0,0-.264.132c-9.373,11.5-20.559,21.407-38.284,25.9a5.155,5.155,0,0,1,.551-2.592l-6.9,3.917-.056.01a.351.351,0,0,0-.238.157l-.622.352.746.142a.345.345,0,0,0,.217.043l7.861,1.5a5.341,5.341,0,0,1-1.485-2.824c17.943-4.532,29.311-14.582,38.747-26.161A.351.351,0,0,0,445.384,165.639Z" transform="translate(-55.831 -44.8)" fill="#397eff"/>
  <path id="Trazado_18704" data-name="Trazado 18704" d="M291.089,160.139c-4.887-1.251-7.915-9.959-11.7-9.95a2.655,2.655,0,0,0-.369.029c-7.9,1.21-18.83,20.7-25.464,20.834-8.088.166-10.686-9.4-14.55-8.433-8.84,2.212-16.2,15.594-22.49,15.544-5.942-.048-7.616-11.615-13.557-11.574-3.957.026-9.237,5.465-13.357,10.617v19.568H320.32v-32.32c-3.291-3.4-7.259-7.491-12.2-12.581C302.415,145.993,297.79,161.853,291.089,160.139Z" transform="translate(-50.447 -44.404)" fill="#de546e"/>
  <path id="Trazado_18705" data-name="Trazado 18705" d="M367.506,137.526a9.564,9.564,0,0,0,2.658-6.875c0-4.658-2.814-8.433-6.284-8.433a5.611,5.611,0,0,0-4.443,2.47,10.074,10.074,0,0,0-1.841,5.963,9.554,9.554,0,0,0,2.66,6.882,17.158,17.158,0,0,0-13.072,16.846c.008.33.023.66.049.989h33.309c.02-.329.031-.659.034-.989A17.156,17.156,0,0,0,367.506,137.526Z" transform="translate(-54.488 -43.687)" fill="#de546e"/>
  <rect id="Rectángulo_1097" data-name="Rectángulo 1097" width="7.016" height="15.927" transform="translate(118.838 214.568) rotate(-77.405)" fill="#397eff"/>
  <path id="Trazado_18706" data-name="Trazado 18706" d="M104.94,236.276l7.425,2.339,1.725-4.3-7.308-2.748Z" transform="translate(-48.277 -46.491)" fill="#fdbc9d"/>
  <path id="Trazado_18707" data-name="Trazado 18707" d="M170.959,251.224,83.3,230.523a7.015,7.015,0,1,0-3.225,13.653l87.658,20.7a7.016,7.016,0,1,0,3.225-13.655Z" transform="translate(-47.498 -46.458)" fill="#2a5cba"/>
  <path id="Trazado_18708" data-name="Trazado 18708" d="M228.825,222.6a46.186,46.186,0,1,0,32.657,13.527A46.184,46.184,0,0,0,228.825,222.6Z" transform="translate(-50.269 -46.261)" fill="#397eff"/>
  <path id="Trazado_18709" data-name="Trazado 18709" d="M229.058,231.72a37.3,37.3,0,1,0,37.3,37.3A37.3,37.3,0,0,0,229.058,231.72Z" transform="translate(-50.503 -46.495)" fill="#93c1fe"/>
  <path id="Trazado_18710" data-name="Trazado 18710" d="M232.117,151.363l-.015.012-1.109.959-.01.009-.264.245.479.513.254-.236.01-.009,1.085-.937.015-.012.76-.589-.428-.554Z" transform="translate(-51.502 -44.419)" fill="#ffbdbc"/>
  <path id="Trazado_18711" data-name="Trazado 18711" d="M218.468,158.709l-.313-.284-.578-.714,0-.009-.351-.538-.588.381.355.548.021.03.616.762.037.038.345.318.04.03.381.263.05.029.218.1.3-.638-.191-.088Z" transform="translate(-51.141 -44.583)" fill="#ffbdbc"/>
  <path id="Trazado_18712" data-name="Trazado 18712" d="M223.107,158.71l-.538.219-.011,0-.548.172h0l-.35.074.149.686.353-.075.031-.009.587-.184.026-.008.581-.236.032-.014,1.064-.562-.33-.621Z" transform="translate(-51.269 -44.608)" fill="#ffbdbc"/>
  <path id="Trazado_18713" data-name="Trazado 18713" d="M227.6,155.479l-.006.007-1.076.942-.033.025.436.551.032-.026.013-.012,1.1-.96.007-.008.96-.889-.477-.515Z" transform="translate(-51.393 -44.517)" fill="#ffbdbc"/>
  <path id="Trazado_18714" data-name="Trazado 18714" d="M247.413,153.705l-.638-.311-.61-.387-.013-.009-.009-.008-.316-.236-.421.561.338.253.022.016.654.413.033.019.675.33.047.019.7.225.059.014.123.018.1-.7-.086-.011Z" transform="translate(-51.878 -44.47)" fill="#ffbdbc"/>
  <path id="Trazado_18715" data-name="Trazado 18715" d="M242.917,150.29l-.641-.5-.02-.014-.655-.446-.029-.017-.289-.158-.337.615.259.139.009.008.63.426.009.008.01.006.608.476.013.011.643.559.461-.53-.659-.57Z" transform="translate(-51.764 -44.377)" fill="#ffbdbc"/>
  <path id="Trazado_18716" data-name="Trazado 18716" d="M237.695,148.469l-.034.006-.618.126-.031.008-.607.178-.029.012-.6.23-.033.015-.293.15.317.625.263-.135.009,0,.579-.224.01,0,.577-.169.008,0,.57-.113.548-.058-.072-.7Z" transform="translate(-51.623 -44.359)" fill="#ffbdbc"/>
  <path id="Trazado_18717" data-name="Trazado 18717" d="M201.166,148.255l-.075.011-.65.166-.061.022-.615.289-.047.027-.585.394-.031.021-.421.359.454.534.4-.342.549-.369.565-.264.578-.149.162,0-.023-.7Z" transform="translate(-50.68 -44.354)" fill="#ffbdbc"/>
  <path id="Trazado_18718" data-name="Trazado 18718" d="M252.95,152.086l-.01.008-.78.683-.817.55-.43.224h0l-.063.027.267.648.093-.039.027-.012.45-.232.033-.021.854-.577.035-.028.8-.7.021-.023.072-.074-.51-.483Z" transform="translate(-52.018 -44.451)" fill="#ffbdbc"/>
  <path id="Trazado_18719" data-name="Trazado 18719" d="M195.74,152.727l-.012.012-.516.534-.018.017-.472.427.469.521.491-.443.017-.016.546-.566.012-.011.9-1.024-.529-.463Z" transform="translate(-50.579 -44.443)" fill="#ffbdbc"/>
  <path id="Trazado_18720" data-name="Trazado 18720" d="M192.193,154.836l-.56-.031-.611-.115-.641-.189,0,0-.65-.254-.127.326v.376l.551.215.027.011.665.2.037.008.643.12.045,0,.62.034h.066l.105-.014-.088-.7Z" transform="translate(-50.447 -44.508)" fill="#ffbdbc"/>
  <path id="Trazado_18721" data-name="Trazado 18721" d="M205.708,151.47,205,150.381l-.014-.017-.372-.5-.019-.021-.343-.392-.527.466.34.386,0,0,.342.458,0,0,.7,1.082,0,0,.195.307.592-.376-.2-.311Z" transform="translate(-50.81 -44.385)" fill="#ffbdbc"/>
  <path id="Trazado_18722" data-name="Trazado 18722" d="M215.346,154.645l-.372-.306-.042-.03-.413-.247-.051-.025-.459-.18-.051-.015-.37-.083-.049-.008-.344-.025-.049,0-.319.02-.048.007-.2.039.137.69.173-.037.275-.017.293.021.32.071.405.156.374.226.331.273.054.059.507-.485-.072-.075Z" transform="translate(-51.037 -44.495)" fill="#ffbdbc"/>
  <path id="Trazado_18723" data-name="Trazado 18723" d="M209.56,154.9l-.278-.007-.337-.058-.477-.166-.441-.257-.43-.351-.181.223-.3.286.007.006.032.03.451.368.045.032.493.283.061.029.542.19.055.016.375.064.047,0,.346.012.069,0,.344-.058-.116-.692Z" transform="translate(-50.896 -44.503)" fill="#ffbdbc"/>
  <path id="Trazado_18724" data-name="Trazado 18724" d="M321.09,122.537l-.006,0-.575.522.473.518.579-.526,0,0,1.473-1.386-.481-.51Z" transform="translate(-53.804 -43.66)" fill="#ffbdbc"/>
  <path id="Trazado_18725" data-name="Trazado 18725" d="M299.135,139.167l-1.587.649-.013,0-.076.027.211.668.088-.028.028-.011,1.616-.658.023-.01.868-.438-.317-.625Z" transform="translate(-53.213 -44.111)" fill="#ffbdbc"/>
  <path id="Trazado_18726" data-name="Trazado 18726" d="M304.626,135.991l-.01.008-1.854,1.194h0l-.01.007-.207.12.352.606.222-.129.011-.008,1.88-1.208.011-.006.26-.181-.4-.578Z" transform="translate(-53.343 -44.035)" fill="#ffbdbc"/>
  <path id="Trazado_18727" data-name="Trazado 18727" d="M289.523,136.962l-1.715-1.364-.01-.008-.025-.02-.421.563.018.015.009.006,1.713,1.362,0,0,.459.35.425-.559-.451-.343Z" transform="translate(-52.954 -44.029)" fill="#ffbdbc"/>
  <path id="Trazado_18728" data-name="Trazado 18728" d="M293.9,139.879l-.8-.394-.008-.006-.756-.456-.365.6.765.462.026.014.833.414.039.018.8.285.057.016.128.021.121-.689-.1-.018Z" transform="translate(-53.072 -44.118)" fill="#ffbdbc"/>
  <path id="Trazado_18729" data-name="Trazado 18729" d="M308.59,133.155l0,0h0l-1.3.957.417.565,1.3-.962.008,0,.935-.726-.428-.553Z" transform="translate(-53.465 -43.949)" fill="#ffbdbc"/>
  <path id="Trazado_18730" data-name="Trazado 18730" d="M317.979,125.364l-.007.006-1.754,1.527.461.527,1.76-1.531,0,0,.353-.319-.473-.521Z" transform="translate(-53.694 -43.759)" fill="#ffbdbc"/>
  <rect id="Rectángulo_1098" data-name="Rectángulo 1098" width="2.805" height="0.701" transform="translate(258.238 86.739) rotate(-39.433)" fill="#ffbdbc"/>
  <path id="Trazado_18731" data-name="Trazado 18731" d="M274.049,139.045h0l-1.031.944.472.518,1.029-.942,0,0,1.045-.94-.471-.521Z" transform="translate(-52.586 -44.094)" fill="#ffbdbc"/>
  <path id="Trazado_18732" data-name="Trazado 18732" d="M270.73,142.034l-.007.007,0,0-.982.792-.9.64-.206.117.349.61.217-.124.03-.02.935-.663.019-.015.99-.8.01-.009.1-.086-.462-.531Z" transform="translate(-52.474 -44.193)" fill="#ffbdbc"/>
  <path id="Trazado_18733" data-name="Trazado 18733" d="M285.267,133.819l-.691-.363-.046-.019-.632-.225-.079-.019-.562-.061h-.08l-.483.056-.04.007-.236.055.158.685.217-.052.421-.049.483.051.579.206.655.344.009.005.024.015.378-.589-.047-.031Z" transform="translate(-52.827 -43.967)" fill="#ffbdbc"/>
  <path id="Trazado_18734" data-name="Trazado 18734" d="M259.816,143.981l-.032.025-.8.709-.022.021-.5.523.511.482.471-.5.007-.007.784-.69.817-.556-.395-.58Z" transform="translate(-52.213 -44.23)" fill="#ffbdbc"/>
  <path id="Trazado_18735" data-name="Trazado 18735" d="M264.9,143.4l-.434-.3-.03-.02-.442-.244-.062-.027-.186-.059-.213.668.156.05.4.22.01.006.405.283.881.61.046.027.451.222.311-.627-.428-.212Z" transform="translate(-52.343 -44.213)" fill="#ffbdbc"/>
  <path id="Trazado_18736" data-name="Trazado 18736" d="M255.922,148.454l-1.027,1.364.56.425,1.028-1.368.659-.877-.561-.42Z" transform="translate(-52.122 -44.337)" fill="#ffbdbc"/>
  <path id="Trazado_18737" data-name="Trazado 18737" d="M278.709,135.095l-.02.013-1.12.855-.011.009-.226.187.45.539.211-.179.013-.008,1.091-.832.009-.008.007,0,.9-.6-.39-.586Z" transform="translate(-52.697 -44.001)" fill="#ffbdbc"/>
  <path id="Trazado_18738" data-name="Trazado 18738" d="M190.587,307.586c-3.321.045-8.057,1.659-12.434,4.3-14.891,8.987-27.1,24.28-33.7,33.684h19.637c8.486-7.547,19.64-17.991,26.46-26.433C197.275,310.806,195.442,307.521,190.587,307.586Z" transform="translate(-49.29 -48.44)" fill="#ffdd19"/>
  <path id="Trazado_18739" data-name="Trazado 18739" d="M173.529,274.386c-4.543.087-11.685,4.135-17.689,9.978-19.158,18.653-31.351,46.8-36.453,60.354h20.293c8.454-11.5,26.35-36.6,35.015-54.52C180.258,278.693,178.367,274.293,173.529,274.386Z" transform="translate(-48.647 -47.588)" fill="#ffb119"/>
  <path id="Trazado_18740" data-name="Trazado 18740" d="M94.935,271.541c-7.386-7.191-16.174-12.173-21.766-12.279-5.952-.111-8.279,5.3-1.434,19.453,10.325,21.352,31.252,50.917,42.015,65.615H139.24C132.654,327.153,117.836,293.83,94.935,271.541Z" transform="translate(-47.318 -47.201)" fill="#ffdd19"/>
  <path id="Trazado_18741" data-name="Trazado 18741" d="M74.14,314a28.969,28.969,0,0,0-11.951-3.309c-5.445,0-7.583,3.367.183,11.534,7.2,7.575,18.547,16.656,27.477,23.426h21.265C103.934,336.893,90.19,321.993,74.14,314Z" transform="translate(-47.055 -48.519)" fill="#ffb119"/>
  <path id="Trazado_18742" data-name="Trazado 18742" d="M167.027,286.807a.353.353,0,0,0-.259.142c-13.309,17.478-25.8,35.554-36.244,55.109a.352.352,0,0,0,.62.333c10.419-19.51,22.886-37.556,36.182-55.017A.351.351,0,0,0,167.027,286.807Z" transform="translate(-48.932 -47.907)" fill="#b65468"/>
  <path id="Trazado_18743" data-name="Trazado 18743" d="M183.692,317.355a.355.355,0,0,0-.219.071c-11.088,8.24-20.275,17.419-29.634,26.489a.35.35,0,1,0,.488.5c9.365-9.072,18.527-18.226,29.564-26.428A.35.35,0,0,0,183.692,317.355Z" transform="translate(-49.528 -48.69)" fill="#b65468"/>
  <path id="Trazado_18744" data-name="Trazado 18744" d="M83.248,276.078a.35.35,0,1,0-.542.444c16.5,20.145,29.785,42.346,41.462,65.579a.351.351,0,1,0,.627-.314C113.1,318.524,99.791,296.277,83.248,276.078Z" transform="translate(-47.704 -47.628)" fill="#b65468"/>
  <path id="Trazado_18745" data-name="Trazado 18745" d="M72.122,322.836a.363.363,0,0,0-.2-.05.351.351,0,0,0-.15.657c10.047,5.818,18.146,13.211,26.059,20.785a.351.351,0,1,0,.485-.508C90.394,336.139,82.25,328.7,72.122,322.836Z" transform="translate(-47.422 -48.829)" fill="#b65468"/>
  <path id="Trazado_18746" data-name="Trazado 18746" d="M145.656,314.337c-2.125-13.142-3.036-23.046-4.631-34.56-.64-4.633-1.984-13.891-1.984-13.891l-31.912-2.643s-3.574,6.277-3.8,12.4c-.18,4.823,1.646,9.558,1.654,14.385.015,9.428-2.179,18.73-3.142,28.109-.181,1.763-.185,3.549-.5,5.293-1.061,5.958-3.941,15.951-5.446,21h17.69c.921-3.717,2.09-8.412,2.969-11.823.241-.939.518-1.87.742-2.813.584-2.438.772-4.98,1.572-7.356.31-.925.938-1.72,1.24-2.645,1.98-6.087,3.637-18.852,3.637-18.852s2.736,10.287,5.043,15.047c.374.771,1.136,1.338,1.406,2.149.433,1.311-.123,2.8.248,4.135.173.628.715,1.111.908,1.736,1.644,5.328,2.447,14.375,2.817,20.422h14.142c-.02-6.29-.239-19.63-1.662-27.119C146.452,316.286,145.822,315.369,145.656,314.337Z" transform="translate(-48.045 -47.303)" fill="#2692c2"/>
  <path id="Trazado_18747" data-name="Trazado 18747" d="M117.538,289.229c-4.623-2.861-6.611-5.029-7.438-6.438a3.781,3.781,0,0,1-.569-1.542,1.375,1.375,0,0,1,.008-.348.366.366,0,0,1,.016-.079.293.293,0,0,0-.282-.4.3.3,0,0,0-.263.19,1.208,1.208,0,0,0-.05.2,1.986,1.986,0,0,0-.01.491,4.372,4.372,0,0,0,.645,1.786c.9,1.536,2.964,3.748,7.636,6.638,2.245,1.389,3.912,4.318,4.99,6.906a32.257,32.257,0,0,1,1.575,4.815.293.293,0,1,0,.571-.128,32.967,32.967,0,0,0-1.607-4.912C121.66,293.769,119.98,290.742,117.538,289.229Z" transform="translate(-48.379 -47.743)" fill="#1f729e"/>
  <path id="Trazado_18748" data-name="Trazado 18748" d="M114.027,235.681l.041-23.605-8.679,20.05Z" transform="translate(-48.288 -45.991)" fill="#ffea92"/>
  <path id="Trazado_18749" data-name="Trazado 18749" d="M144.739,228.514c.521-8.923-7.772-16.123-7.772-16.123l-14.882-4.132-8.02,3.719s-.224,18.693,0,30.012c.027,1.345-.831,2.564-1.074,3.886-.27,1.469.062,3.048-.413,4.465-1.448,4.306-5.937,8.632-7.193,11.573-.436,1.018.285,2.367,1.074,3.143,4.049,3.973,10.548,4.768,16.2,5.208,5.118.4,10.2-1.292,15.213-2.4,1.176-.259,3.685.193,3.474-.993a73.941,73.941,0,0,1-.083-26.787C141.927,236.019,144.5,232.535,144.739,228.514Z" transform="translate(-48.285 -45.893)" fill="#ffea92"/>
  <path id="Trazado_18750" data-name="Trazado 18750" d="M125.157,206.215l10.336,2.728,2.314-12.4-10.666-3.473Z" transform="translate(-48.795 -45.503)" fill="#fdbc9d"/>
  <path id="Trazado_18751" data-name="Trazado 18751" d="M123.69,205.38l-1.163,2.805,14.882,4.132L136.2,208.3Z" transform="translate(-48.728 -45.819)" fill="#ffca72"/>
  <path id="Trazado_18752" data-name="Trazado 18752" d="M144.162,228.575c-.207,3.533-3.627,9.033-4.209,12.607-1.258,7.743-2.358,14.868-.754,23.827.188,1.041-2.018.643-3.051.871-4.4.973-8.5,2.412-12.994,2.066-4.97-.386-10.473-.548-14.031-4.04a2.811,2.811,0,0,1-.944-2.76c1.1-2.585,4.222-6.924,5.493-10.706.418-1.245.127-2.632.362-3.924a14.218,14.218,0,0,0,.52-3.136c-.038-1.946-.252-4.43-.565-7.156.016,2.144.038,4.23.074,6.088.027,1.347-.831,2.566-1.074,3.888-.27,1.469.062,3.048-.413,4.466-1.447,4.306-5.937,8.632-7.193,11.573-.436,1.018.285,2.367,1.074,3.141,4.049,3.975,10.548,4.77,16.2,5.21,5.118.4,10.2-1.292,15.214-2.4,1.175-.259,3.684.193,3.472-.993a73.963,73.963,0,0,1-.084-26.787c.663-4.07,3.238-7.553,3.475-11.574a16.488,16.488,0,0,0-1.705-7.973A23.74,23.74,0,0,1,144.162,228.575Z" transform="translate(-48.285 -46.216)" fill="#f7df89"/>
  <path id="Trazado_18753" data-name="Trazado 18753" d="M139.061,242.458s3.332-13.715,1.24-20.09c-1.038-3.16-3.442-5.606-6.019-5.647-1.762-.029-3.6,1.068-5.143,3.829-2.7,4.842-2.62,15.67-2.811,19.512a13.254,13.254,0,0,0,1.208.664c-.54,2.992-1.343,8.309-.856,11.452.347,2.245,1.142,3.556,4.034,4.209,2.627.593,6.269,1.3,10.085,2.1a68.758,68.758,0,0,1-.068-8.673,14.73,14.73,0,0,1-3.406-2.978c-.449-.652-.3-2.8-.087-4.5C137.846,242.364,138.453,242.4,139.061,242.458Z" transform="translate(-48.825 -46.11)" fill="#efcd76"/>
  <path id="Trazado_18754" data-name="Trazado 18754" d="M160.447,255.887c-.089-1.641,1.359-1.7,2.47-3.511.649-1.059.2-4.039-1.477-2.194a12.692,12.692,0,0,1-3.638,2.563,7.927,7.927,0,0,1-5.6,1.078c-5.47-1.5-12.131-5.841-13.582-7.94-.779-1.128.248-6.779.248-6.779l-9.606-1.565s-1.987,9.155-1.286,13.681c.347,2.245,1.143,3.556,4.034,4.209,4.878,1.1,13.24,2.6,19.76,4.355a11.5,11.5,0,0,1,4.268,2.074c3,2.374,11.613,3.332,9.938,1.666C164.257,261.815,160.587,258.456,160.447,255.887Z" transform="translate(-48.863 -46.644)" fill="#fdbc9d"/>
  <path id="Trazado_18755" data-name="Trazado 18755" d="M130.43,219.018c-2.7,4.843-2.62,15.672-2.811,19.512,4.244,2.635,8.488,1.987,12.732,2.4,0,0,3.332-13.715,1.24-20.09C139.843,215.514,134.219,212.222,130.43,219.018Z" transform="translate(-48.858 -46.071)" fill="#ffea92"/>
  <path id="Trazado_18756" data-name="Trazado 18756" d="M145.754,184.9s1.509-6.14-5.612-9.178c-5.334-2.274-12.965,1.238-16.486,6.08a11.789,11.789,0,0,0-2.163,9.529c.629,2.631,2.043,4,2.689,5.846a27.763,27.763,0,0,1,.7,3.1,11.956,11.956,0,0,0,5.145-.878,25.709,25.709,0,0,0,1.286-4.617l12.043-.409s3.377-.613,4.151-5.262C147.894,186.785,145.754,184.9,145.754,184.9Z" transform="translate(-48.694 -45.041)" fill="#223d70"/>
  <path id="Trazado_18757" data-name="Trazado 18757" d="M115.314,182.867c-8.979,2.952-5.362,13.769-7.542,17.6-1.856,3.259-8.652,7.191-8.652,7.191a23.65,23.65,0,0,0,17.246-.468c5.316-2.289,5-13.126,5.586-15.355.561-2.15,1.468-2.071,1.741-3.124a4.786,4.786,0,0,0-1.13-4.964C120.722,182.152,117.626,182.107,115.314,182.867Z" transform="translate(-48.127 -45.23)" fill="#274680"/>
  <path id="Trazado_18758" data-name="Trazado 18758" d="M123.034,184.186c.772.855,1.083,3.551,1.271,4.552.184.974,1.823.351,1.789-1.081-.019-.815-.235-2.9-1.239-3.927C124.416,183.284,122.616,183.721,123.034,184.186Z" transform="translate(-48.739 -45.259)" fill="#4f3e9c"/>
  <path id="Trazado_18759" data-name="Trazado 18759" d="M136.226,205.955l1.555-8.335-6.2-2.32C132.415,198.9,131.1,202.636,136.226,205.955Z" transform="translate(-48.96 -45.561)" fill="#c19078"/>
  <path id="Trazado_18760" data-name="Trazado 18760" d="M137.111,188.16c-.812,2.427-1.9,3.313-3.1,3.566,0,0-.547-1.711-1.286-1.871-2.712-.587-2.469,5.561-.76,6.548.651.375.977-.574.994-.234.119,2.337.593,4.976,2.572,6.488,1.431,1.1,3.9.322,5.262-1.227,3.944-4.469,3.215-11.166,3.215-11.166C139.461,190.013,140.057,188.538,137.111,188.16Z" transform="translate(-48.937 -45.378)" fill="#fdbc9d"/>
  <path id="Trazado_18761" data-name="Trazado 18761" d="M132.619,191.754a.518.518,0,0,0-.381-.025.707.707,0,0,0-.3.2,1.463,1.463,0,0,0-.355.728,2.081,2.081,0,0,0,.783,2.005.235.235,0,1,0,.3-.36,1.576,1.576,0,0,1-.626-1.554,1.037,1.037,0,0,1,.233-.494.317.317,0,0,1,.107-.077c.022-.006.02,0,.031,0a.688.688,0,0,1,.176.279.233.233,0,1,0,.439-.157A.87.87,0,0,0,132.619,191.754Z" transform="translate(-48.959 -45.468)" fill="#c19078"/>
  <path id="Trazado_18762" data-name="Trazado 18762" d="M406.093,275.9c-.212-4.33.524-8.424.992-12.733.48-4.415-1.278-9.387-2.819-9.242a1.153,1.153,0,0,0-.818.644c-4.565,7.411-10.026,13.09-12.237,20.835-2.421,8.483-.259,13.752-1.488,22.488-.793,5.639-3.446,14.808-3.473,20.5-.035,7.434,4,19.888,6.075,25.8h14.437c.8-5.4,1.615-12.345,1.314-16.866-.309-4.643-3.2-8.909-3.308-13.56-.166-7.413,7.225-12.428,7.112-19.843C411.8,288.5,406.358,281.324,406.093,275.9Z" transform="translate(-55.49 -47.064)" fill="#ffb119"/>
  <path id="Trazado_18763" data-name="Trazado 18763" d="M385.189,327.211c-3.734-3.3-8.856-4.559-13.229-6.945-3.337-1.82-6.24-4.672-9.921-5.621a29.045,29.045,0,0,0-7.359-.744c-3.27.016-6.6.315-9.672.33-6.5.033-12.656-1.03-18.851.578-2.767.719,4.109,4,6.119,6.037,3.2,3.239,5.935,6.583,10.168,8.267,4.716,1.877,9.455,1.089,13.889,3.555,3.11,1.729,5.083,6.344,8.021,8.349A62.386,62.386,0,0,0,373,345.731h25.432C395.769,341.06,389.975,331.437,385.189,327.211Z" transform="translate(-53.932 -48.602)" fill="#ffdd19"/>
  <path id="Trazado_18764" data-name="Trazado 18764" d="M347.085,319.248a.394.394,0,0,0-.137-.025.351.351,0,0,0-.124.678c15.249,6.1,29.894,13.243,42.052,24.977a.351.351,0,1,0,.487-.5C377.106,332.544,362.365,325.359,347.085,319.248Z" transform="translate(-54.473 -48.738)" fill="#b65468"/>
  <path id="Trazado_18765" data-name="Trazado 18765" d="M399.542,274.248a.352.352,0,0,0-.322.308,308.585,308.585,0,0,0-2.814,54.3.351.351,0,1,0,.7-.026,307.975,307.975,0,0,1,2.806-54.173A.35.35,0,0,0,399.542,274.248Z" transform="translate(-55.745 -47.585)" fill="#b65468"/>
  <path id="Trazado_18766" data-name="Trazado 18766" d="M511,305.636a19.786,19.786,0,0,0-6.263-1.177c-.691-.039-1.4-.056-2.136-.052a38.1,38.1,0,0,0-15.742,3.378c-4.125,2.01-7.3,5.6-11.244,7.938-5.386,3.193-11.951,4.392-16.866,8.267-6.371,5.024-14.717,16.577-18.138,21.5h21.112q1.245,0,2.472-.1t2.438-.3q1.21-.2,2.4-.493t2.362-.68q1.172-.387,2.322-.86c.076-.032.15-.07.227-.1,2.21-2.45,4.022-5.286,6.712-7.465,3.424-2.772,8.074-4.546,11.161-7.689,2.649-2.7,3.8-6.6,6.118-9.592a26.5,26.5,0,0,1,1.988-2.287,19,19,0,0,1,8.181-4.988C510.521,310.1,512.794,306.392,511,305.636Z" transform="translate(-56.883 -48.358)" fill="#ffb119"/>
  <path id="Trazado_18767" data-name="Trazado 18767" d="M494.453,312.775a.364.364,0,0,0-.16.036,146.81,146.81,0,0,0-41.27,30.165.351.351,0,1,0,.5.489A146.068,146.068,0,0,1,494.6,313.442.35.35,0,0,0,494.453,312.775Z" transform="translate(-57.199 -48.573)" fill="#b65468"/>
  <path id="Trazado_18768" data-name="Trazado 18768" d="M498.726,259.394a33,33,0,0,0-5.543.548c-4.993.894-8.385,3.428-12.748,6.012-4.935,2.925-8.024,8.3-12.733,11.576-4.231,2.944-9.866,3.7-13.725,7.111-4.9,4.337-6.784,11.268-11.078,16.2-3.278,3.768-7.833,6.291-11.078,10.088-3.776,4.415-5.805,10.145-9.592,14.55-3.433,4-9.52,5.805-11.74,10.583-.953,2.057-1.167,5.285-1.108,8.269h24.891c3.224-5.347,8.233-13.153,12.265-17.2,4.058-4.071,10.126-5.72,14.221-9.755,3.942-3.887,5.911-9.422,9.59-13.559,3.449-3.88,8.325-6.369,11.574-10.418,4.2-5.234,6.03-12.056,9.923-17.527,3.53-4.964,8.962-6.972,12.069-13.724C504.791,260.243,502.375,259.378,498.726,259.394Z" transform="translate(-56.082 -47.204)" fill="#ffdd19"/>
  <path id="Trazado_18769" data-name="Trazado 18769" d="M489.814,269.5a.357.357,0,0,0-.214.084,258.277,258.277,0,0,0-42.718,45.372.351.351,0,1,0,.566.41,257.589,257.589,0,0,1,42.6-45.244A.351.351,0,0,0,489.814,269.5Z" transform="translate(-57.042 -47.463)" fill="#b65468"/>
  <path id="Trazado_18770" data-name="Trazado 18770" d="M449.284,328.992c-.167-1.358-1.133-2.53-1.324-3.886-.234-1.666.664-3.411.248-5.042-.143-.564-.808-.917-.91-1.489-.122-.693.388-1.365.414-2.068.173-4.55-1.935-9.015-1.653-13.559.2-3.175,1.794-6.12,2.315-9.259a23.675,23.675,0,0,0-.827-11.079l-36.378-5.621s-2.326,3.007-2.811,4.795c-.3,1.118.219,2.336,0,3.474-.224,1.165-1.059,2.148-1.322,3.307-3.671,16.141-7.976,43.9-9.822,56.221h22.835a87.616,87.616,0,0,0,2.777-10.831c.139-.928-.033-1.881.083-2.812a71.012,71.012,0,0,1,1.571-7.027s.276,6.2.744,9.26c.188,1.229.731,2.4.827,3.637.092,1.184-.386,2.375-.248,3.555a23.062,23.062,0,0,0,1.111,4.217h23.627a81.678,81.678,0,0,1-1.672-10.914C448.8,332.24,449.483,330.613,449.284,328.992Z" transform="translate(-55.771 -47.655)" fill="#666ce7"/>
  <path id="Trazado_18771" data-name="Trazado 18771" d="M430.879,306.056a.293.293,0,0,0-.276.209l-5.693,18.508a.293.293,0,0,0,.559.173l5.692-18.508A.292.292,0,0,0,430.879,306.056Z" transform="translate(-56.481 -48.401)" fill="#464a9f"/>
  <path id="Trazado_18772" data-name="Trazado 18772" d="M446.25,300.3a.293.293,0,0,0-.2.081,10.848,10.848,0,0,1-4.019,2.268c-3.229.763-6,.109-9.4.758-3.081.588-6.055,2.565-8.978,2.86a10.065,10.065,0,0,1-5.665-1.244.292.292,0,1,0-.3.5,10.6,10.6,0,0,0,6.027,1.328c3.138-.317,6.123-2.314,9.028-2.869,3.264-.625,6.054.034,9.425-.763a11.048,11.048,0,0,0,4.282-2.408A.293.293,0,0,0,446.25,300.3Z" transform="translate(-56.292 -48.253)" fill="#464a9f"/>
  <path id="Trazado_18773" data-name="Trazado 18773" d="M443.64,213.2l12.395-.935.935-14.381-11.225,2.338Z" transform="translate(-56.961 -45.627)" fill="#fdbc9d"/>
  <path id="Trazado_18774" data-name="Trazado 18774" d="M441.08,211.775l-1.52,4.56,18.912-1.231-1.405-4.3Z" transform="translate(-56.856 -45.958)" fill="#4787ae"/>
  <path id="Trazado_18775" data-name="Trazado 18775" d="M456.966,213.959l-17.689,1.12a24.891,24.891,0,0,0-10.432,8.584C419.8,237.506,416.838,254.492,411.106,270c-.186.5.215,1.09.083,1.612-.292,1.158-1.714,1.875-1.86,3.059a4.431,4.431,0,0,0,1.043,3.364c2.552,2.845,6.8,3.681,10.523,4.56,8.281,1.957,17.424,4.115,25.489,1.4a6.648,6.648,0,0,0,3.858-3.274c.541-1.166-.191-2.587,0-3.858.532-3.549,2.919-6.709,3.157-10.29.048-.709-.42-1.4-.351-2.1.409-4.187,3.352-7.747,4.443-11.809.369-1.374.38-2.824.7-4.209,1.628-7.014,5.913-14.9,5.729-22.1C463.745,219.4,456.966,213.959,456.966,213.959Z" transform="translate(-56.081 -46.039)" fill="#53bccc"/>
  <path id="Trazado_18776" data-name="Trazado 18776" d="M463.419,225.625c.167,6.564-5.312,18.22-6.8,24.616-.293,1.263-.3,2.585-.64,3.838-.995,3.7-4.01,6.29-4.382,10.107-.062.645.362,1.273.321,1.919-.217,3.263-2.395,6.146-2.88,9.383-.173,1.159.494,2.453,0,3.517a6.071,6.071,0,0,1-3.518,2.987c-7.355,2.472-15.691-.324-23.243-2.109-3.392-.8-6.358-.323-8.686-2.918a4.041,4.041,0,0,1-.951-3.066c.134-1.082,1.429-1.734,1.7-2.79.121-.475-.245-1.01-.075-1.469,3.159-8.549,3-15.416,5.005-24.853-2.829,8.42-5.1,17.126-8.162,25.408-.186.5.215,1.09.083,1.61-.292,1.159-1.714,1.877-1.86,3.06a4.431,4.431,0,0,0,1.043,3.364c2.552,2.845,6.8,3.681,10.523,4.56,8.281,1.957,17.424,4.115,25.489,1.4a6.649,6.649,0,0,0,3.858-3.274c.541-1.166-.191-2.587,0-3.858.532-3.549,2.919-6.709,3.157-10.29.048-.709-.42-1.4-.351-2.1.409-4.187,3.352-7.747,4.443-11.809.369-1.374.38-2.824.7-4.209,1.628-7.014,5.913-14.9,5.729-22.1a12.814,12.814,0,0,0-1.16-4.866A15.933,15.933,0,0,1,463.419,225.625Z" transform="translate(-56.081 -46.237)" fill="#4faec3"/>
  <path id="Trazado_18777" data-name="Trazado 18777" d="M412.974,251.49c-1.171,5.784,3.963,7.106,7.358,6.283,4.891-1.185,8.682-8.35,8.682-8.35L415.7,246.611S413.343,249.664,412.974,251.49Z" transform="translate(-56.17 -46.876)" fill="#fdbc9d"/>
  <path id="Trazado_18778" data-name="Trazado 18778" d="M429.247,223.381c-5.74,7.019-10.394,15.4-15.505,23.209,4.09,2.768,8.361,5.363,15.544,5.125,0,0,6.875-10.89,8.433-17.032C441.256,220.735,429.247,223.381,429.247,223.381Z" transform="translate(-56.194 -46.276)" fill="#4fa9c1"/>
  <path id="Trazado_18779" data-name="Trazado 18779" d="M421.707,230.173c-2.451.75-5.877,4.614-6.783,7.788-.332,1.168-.418,2.9.579,3.6a1.879,1.879,0,0,0,2.26-.379c1-.848,1.059-2.327,1.685-3.475,1.089-2,3.092-4.5,3.961-6.129C423.8,230.833,422.7,229.868,421.707,230.173Z" transform="translate(-56.219 -46.453)" fill="#fdbc9d"/>
  <path id="Trazado_18780" data-name="Trazado 18780" d="M444.175,210.062c2.947-1.023,5.384-3.4,6.518-9.229L445.3,203.1Z" transform="translate(-56.975 -45.703)" fill="#bf8e76"/>
  <path id="Trazado_18781" data-name="Trazado 18781" d="M462.86,187.281s1.189-1.393.058-4.151c-1.5-3.668-13.011-7.021-18.357-6.372-3.531.429-7.016,3.26-5.729,7.717.737,2.554,3.683,3.332,3.683,3.332l7.249,12.277.058,7.308,6.782.585a25.815,25.815,0,0,1,1.637-4.269c1.658-3.048,5.346-5.814,6.372-9.528C466.3,188.06,462.866,187.26,462.86,187.281Z" transform="translate(-56.831 -45.083)" fill="#1a307b"/>
  <path id="Trazado_18782" data-name="Trazado 18782" d="M452.447,194.845c-1.466-.83-2.485,1.462-2.485,1.462a1.94,1.94,0,0,1-1.169-1.666c-.085-1.535.756-2.812.117-4.21-.726-1.584-2.506-1.182-4.035-2.6a4.094,4.094,0,0,1-2.337.263,26.374,26.374,0,0,0-3.128,13.037c0,3.174,2.2,6.081,4.414,6.08,2.7,0,5.126-3.117,5.583-5.846.062-.372.268.822.935.643C452.7,201.376,455.221,196.418,452.447,194.845Z" transform="translate(-56.853 -45.369)" fill="#fdbc9d"/>
  <path id="Trazado_18783" data-name="Trazado 18783" d="M452.006,197.362a1.665,1.665,0,0,0-.668-.052.234.234,0,1,0,.038.466,1.352,1.352,0,0,1,.486.029c.094.031.119.063.136.1a.753.753,0,0,1-.128.536,3.734,3.734,0,0,1-.613.792,2.585,2.585,0,0,1-.64.5.234.234,0,1,0,.189.428,2.826,2.826,0,0,0,.782-.592,4.093,4.093,0,0,0,.694-.9,1.041,1.041,0,0,0,.135-.967A.686.686,0,0,0,452.006,197.362Z" transform="translate(-57.136 -45.612)" fill="#bf8e76"/>
  <path id="Trazado_18784" data-name="Trazado 18784" d="M252.4,279.5a3.273,3.273,0,0,0-3.082,1.89q-.149.307-.3.613a3.274,3.274,0,1,0,5.819,3c.131-.253.257-.51.381-.764A3.274,3.274,0,0,0,252.4,279.5Z" transform="translate(-51.961 -47.72)" fill="#fff"/>
  <path id="Trazado_18785" data-name="Trazado 18785" d="M239.793,242.831a3.314,3.314,0,0,0-.974-.1,3.274,3.274,0,0,0-.555,6.463c8.42,2.022,14.07,11.549,13.233,22.029a3.274,3.274,0,1,0,6.527.521C259.072,258.608,251.976,245.756,239.793,242.831Z" transform="translate(-51.63 -46.777)" fill="#fff"/>
  <path id="Trazado_18786" data-name="Trazado 18786" d="M114.928,215.036a.235.235,0,0,0-.224.194c-1.191,6.279-.651,13.593-.691,20.526a.234.234,0,0,0,.468,0c.042-6.96-.488-14.254.683-20.441A.233.233,0,0,0,114.928,215.036Z" transform="translate(-48.507 -46.067)" fill="#efcd76"/>
</svg>
