<svg id="Grupo_8124" data-name="Grupo 8124" xmlns="http://www.w3.org/2000/svg" xmlns:xlink="http://www.w3.org/1999/xlink" width="83.394" height="83.394" viewBox="0 0 83.394 83.394">
  <defs>
    <clipPath id="clip-path">
      <path id="Trazado_18413" data-name="Trazado 18413" d="M131.455,354.841a34.91,34.91,0,1,1-34.912-34.909A34.912,34.912,0,0,1,131.455,354.841Z" transform="translate(-61.634 -319.932)" fill="none"/>
    </clipPath>
  </defs>
  <g id="DIBUJO">
    <path id="Trazado_18409" data-name="Trazado 18409" d="M98.416,398.428a41.7,41.7,0,1,1,41.7-41.7A41.745,41.745,0,0,1,98.416,398.428Z" transform="translate(-56.721 -315.034)" fill="#fff"/>
    <path id="Trazado_18410" data-name="Trazado 18410" d="M136,355.841a38.469,38.469,0,1,1-38.47-38.47A38.467,38.467,0,0,1,136,355.841Z" transform="translate(-55.83 -314.143)" fill="#1a1413" opacity="0.05"/>
    <g id="Grupo_7910" data-name="Grupo 7910" opacity="0.05">
      <path id="Trazado_18411" data-name="Trazado 18411" d="M98.416,398.428a41.7,41.7,0,1,1,41.7-41.7A41.745,41.745,0,0,1,98.416,398.428Zm0-82.134a40.437,40.437,0,1,0,40.438,40.438A40.482,40.482,0,0,0,98.416,316.294Z" transform="translate(-56.721 -315.034)" fill="#1a1413"/>
    </g>
    <g id="Grupo_7915" data-name="Grupo 7915" transform="translate(6.786 6.766)">
      <g id="Grupo_7914" data-name="Grupo 7914" clip-path="url(#clip-path)">
        <g id="Grupo_7913" data-name="Grupo 7913" transform="translate(0 -0.001)">
          <rect id="Rectángulo_972" data-name="Rectángulo 972" width="70.931" height="70.03" fill="#26b9e8"/>
          <path id="Trazado_18412" data-name="Trazado 18412" d="M123.169,356.285a39.678,39.678,0,0,1-16.961,5.755c-5.867.74-11.81.322-17.709.34a86.954,86.954,0,0,0-12.286.675c-4.651.756-6.477,1.816-10.3,4.138a13.706,13.706,0,0,0-4.279,3.449v7.885h70.93V349.918c-1.385.808-2.812,1.533-4.239,2.185A35.7,35.7,0,0,1,123.169,356.285Z" transform="translate(-61.634 -308.497)" fill="#27833c"/>
          <g id="Grupo_7911" data-name="Grupo 7911" transform="translate(35.426 17.57)">
            <line id="Línea_957" data-name="Línea 957" x2="25.486" transform="translate(0 2.266)" fill="none" stroke="#bbe0e3" stroke-linecap="round" stroke-width="13.894"/>
            <line id="Línea_958" data-name="Línea 958" x2="13.933" transform="translate(3.534)" fill="none" stroke="#bbe0e3" stroke-linecap="round" stroke-width="13.894"/>
            <line id="Línea_959" data-name="Línea 959" x2="16.444" transform="translate(6.796 4.404)" fill="none" stroke="#bbe0e3" stroke-linecap="round" stroke-width="13.894"/>
            <line id="Línea_960" data-name="Línea 960" x2="8.498" transform="translate(10.503 6.626)" fill="none" stroke="#bbe0e3" stroke-linecap="round" stroke-width="13.894"/>
          </g>
          <g id="Grupo_7912" data-name="Grupo 7912" transform="translate(6.058 45.148)">
            <line id="Línea_961" data-name="Línea 961" x2="19.917" transform="translate(0 1.77)" fill="none" stroke="#bbe0e3" stroke-linecap="round" stroke-width="10.859"/>
            <line id="Línea_962" data-name="Línea 962" x2="10.891" transform="translate(2.76)" fill="none" stroke="#bbe0e3" stroke-linecap="round" stroke-width="10.859"/>
            <line id="Línea_963" data-name="Línea 963" x2="12.851" transform="translate(5.311 3.441)" fill="none" stroke="#bbe0e3" stroke-linecap="round" stroke-width="10.859"/>
            <line id="Línea_964" data-name="Línea 964" x2="6.645" transform="translate(8.207 5.179)" fill="none" stroke="#bbe0e3" stroke-linecap="round" stroke-width="10.859"/>
          </g>
        </g>
      </g>
    </g>
    <g id="Grupo_7917" data-name="Grupo 7917" transform="translate(46.639 33.015)">
      <g id="Grupo_7916" data-name="Grupo 7916" transform="translate(6.181 39.313)">
        <path id="Trazado_18414" data-name="Trazado 18414" d="M98.836,371.185a.693.693,0,0,1-.691.691h-2.5a.692.692,0,0,1-.689-.691v-3.79h3.876Z" transform="translate(-94.96 -367.395)" fill="#313557"/>
        <path id="Trazado_18415" data-name="Trazado 18415" d="M105.448,371.185a.692.692,0,0,1-.691.691h-2.495a.691.691,0,0,1-.691-.691v-3.79h3.876Z" transform="translate(-92.439 -367.395)" fill="#313557"/>
      </g>
      <path id="Trazado_18416" data-name="Trazado 18416" d="M105.631,354.685H96.286v-13.8a1.035,1.035,0,0,1,1.036-1.036H104.6a1.035,1.035,0,0,1,1.035,1.036Z" transform="translate(-88.273 -338.586)" fill="none" stroke="#324469" stroke-width="8.522"/>
      <path id="Trazado_18417" data-name="Trazado 18417" d="M103.937,340.78c0,.377-.463.684-1.036.684H98.284c-.572,0-1.037-.307-1.037-.684v-1.162c0-.378.466-.684,1.037-.684H102.9c.573,0,1.036.305,1.036.684Z" transform="translate(-87.906 -338.935)" fill="#313557"/>
      <rect id="Rectángulo_973" data-name="Rectángulo 973" width="24.135" height="28.29" transform="translate(0.609 12.474)" fill="#375b7c"/>
      <path id="Trazado_18418" data-name="Trazado 18418" d="M95.136,348.16A4.039,4.039,0,0,1,91.1,352.2a.612.612,0,0,1-.612-.609V348.16a.612.612,0,0,1,.612-.611h3.427A.612.612,0,0,1,95.136,348.16Z" transform="translate(-90.485 -335.65)" fill="#e9d3bb"/>
      <path id="Trazado_18419" data-name="Trazado 18419" d="M95.136,369.6a4.041,4.041,0,0,0-4.039-4.039.613.613,0,0,0-.612.612V369.6a.613.613,0,0,0,.612.612h3.427A.613.613,0,0,0,95.136,369.6Z" transform="translate(-90.485 -328.78)" fill="#e9d3bb"/>
      <path id="Trazado_18420" data-name="Trazado 18420" d="M105.485,348.16a4.038,4.038,0,0,0,4.039,4.038.613.613,0,0,0,.612-.609V348.16a.613.613,0,0,0-.612-.611H106.1A.612.612,0,0,0,105.485,348.16Z" transform="translate(-84.765 -335.65)" fill="#e9d3bb"/>
      <path id="Trazado_18421" data-name="Trazado 18421" d="M105.485,369.6a4.04,4.04,0,0,1,4.039-4.039.614.614,0,0,1,.612.612V369.6a.614.614,0,0,1-.612.612H106.1A.613.613,0,0,1,105.485,369.6Z" transform="translate(-84.765 -328.78)" fill="#e9d3bb"/>
      <rect id="Rectángulo_974" data-name="Rectángulo 974" width="6.496" height="3.907" transform="translate(4.253 18.093) rotate(-23.706)" fill="#f39638"/>
      <path id="Trazado_18422" data-name="Trazado 18422" d="M105.713,358.336c-.214,1.153-1.839,1.819-3.63,1.486s-3.065-1.539-2.85-2.694,1.84-1.819,3.629-1.486S105.929,357.181,105.713,358.336Z" transform="translate(-87.158 -332.597)" fill="#e9d3bb"/>
      <rect id="Rectángulo_975" data-name="Rectángulo 975" width="5.254" height="3.676" transform="translate(16.342 30.744) rotate(-12.017)" fill="#f3a393"/>
      <rect id="Rectángulo_976" data-name="Rectángulo 976" width="4.482" height="4.663" transform="translate(5.604 33.544) rotate(-74.753)" fill="#e01148"/>
    </g>
    <g id="Grupo_7921" data-name="Grupo 7921" transform="translate(7.679 9.451)">
      <path id="Trazado_18423" data-name="Trazado 18423" d="M75.806,326.5a1.41,1.41,0,1,0,1.488,2.4l2.623-1.627-1.488-2.4Z" transform="translate(-57.377 -320.735)" fill="#d8dac1"/>
      <path id="Trazado_18424" data-name="Trazado 18424" d="M72.565,324.366a1.411,1.411,0,1,0,1.489,2.4l2.623-1.627-1.489-2.4Z" transform="translate(-58.613 -321.548)" fill="#d8dac1"/>
      <path id="Trazado_18425" data-name="Trazado 18425" d="M84.381,340.339a1.412,1.412,0,0,1-1.488-2.4l2.625-1.63,1.489,2.4Z" transform="translate(-54.674 -316.372)" fill="#d8dac1"/>
      <path id="Trazado_18426" data-name="Trazado 18426" d="M84.855,344.188a1.41,1.41,0,0,1-1.486-2.4l2.622-1.63,1.489,2.4Z" transform="translate(-54.493 -314.903)" fill="#d8dac1"/>
      <path id="Trazado_18427" data-name="Trazado 18427" d="M65.284,322.962l10.984,11.19,1.31,3.417,8.753-5.432-19.3-10.26Z" transform="translate(-61.135 -321.876)" fill="#e9e8e0"/>
      <path id="Trazado_18428" data-name="Trazado 18428" d="M65.284,322.762l10.984,11.19,1.31,3.417,4.089-2.536L65.866,322.4Z" transform="translate(-61.135 -321.676)" fill="#5b3179"/>
      <line id="Línea_965" data-name="Línea 965" x1="1.488" y1="2.397" transform="translate(19.947 4.821)" fill="none" stroke="#5b3179" stroke-width="3.502"/>
      <line id="Línea_966" data-name="Línea 966" x1="1.489" y1="2.398" transform="translate(15.471 1.874)" fill="none" stroke="#5b3179" stroke-width="3.502"/>
      <path id="Trazado_18429" data-name="Trazado 18429" d="M84.342,356.323l-5.153-14.81-2.482-2.691,8.753-5.432.631,21.846Z" transform="translate(-56.779 -317.485)" fill="#e9e8e0"/>
      <path id="Trazado_18430" data-name="Trazado 18430" d="M84.342,355.524l-5.153-14.81-2.482-2.691,4.087-2.536,4.126,19.677Z" transform="translate(-56.779 -316.686)" fill="#5b3179"/>
      <line id="Línea_967" data-name="Línea 967" x2="1.489" y2="2.398" transform="translate(29.738 20.626)" fill="none" stroke="#5b3179" stroke-width="3.502"/>
      <line id="Línea_968" data-name="Línea 968" x2="1.488" y2="2.398" transform="translate(30.392 25.945)" fill="none" stroke="#5b3179" stroke-width="3.502"/>
      <path id="Trazado_18431" data-name="Trazado 18431" d="M62.28,338.339l5.138,3.831,4.8-2.978-8.458-1.77Z" transform="translate(-62.28 -315.948)" fill="#d8dac1"/>
      <path id="Trazado_18432" data-name="Trazado 18432" d="M62.28,338.186l5.138,3.831,1.4-.871-5.957-3.322Z" transform="translate(-62.28 -315.795)" fill="#5b3179"/>
      <path id="Trazado_18433" data-name="Trazado 18433" d="M67.4,348.4l-1.153-6.3,4.8-2.977-2.168,8.366Z" transform="translate(-60.768 -315.3)" fill="#d8dac1"/>
      <path id="Trazado_18434" data-name="Trazado 18434" d="M67.4,347.82l-1.153-6.3,1.4-.869.333,6.812Z" transform="translate(-60.768 -314.718)" fill="#5b3179"/>
      <path id="Trazado_18435" data-name="Trazado 18435" d="M94.172,326.409a19.06,19.06,0,0,0-5.851,2.511l-17.062,11.02a15.146,15.146,0,0,0-4.029,3.8l-1.1,1.5a1.678,1.678,0,0,0,1.641,2.644l1.832-.318a15.247,15.247,0,0,0,5.191-1.924l17.449-10.4a18.993,18.993,0,0,0,4.846-4.127L99.36,328.4a1.748,1.748,0,0,0-1.752-2.821Z" transform="translate(-60.935 -320.483)" fill="#fff"/>
      <g id="Grupo_7918" data-name="Grupo 7918" transform="translate(9.842 7.694)">
        <path id="Trazado_18436" data-name="Trazado 18436" d="M83.28,328.33h0a.314.314,0,0,1,.1-.437l.62-.4a.316.316,0,0,1,.436.1h0a.313.313,0,0,1-.1.435l-.62.4A.318.318,0,0,1,83.28,328.33Z" transform="translate(-64.133 -327.446)" fill="#35468e"/>
        <path id="Trazado_18437" data-name="Trazado 18437" d="M82.024,329.133h0a.315.315,0,0,1,.1-.436l.622-.4a.316.316,0,0,1,.437.1h0a.314.314,0,0,1-.1.435l-.622.4A.316.316,0,0,1,82.024,329.133Z" transform="translate(-64.612 -327.139)" fill="#35468e"/>
        <path id="Trazado_18438" data-name="Trazado 18438" d="M80.766,329.936h0a.315.315,0,0,1,.1-.435l.622-.4a.313.313,0,0,1,.435.094h0a.317.317,0,0,1-.1.438l-.623.4A.316.316,0,0,1,80.766,329.936Z" transform="translate(-65.092 -326.833)" fill="#35468e"/>
        <path id="Trazado_18439" data-name="Trazado 18439" d="M79.508,330.74h0a.318.318,0,0,1,.1-.437l.623-.4a.312.312,0,0,1,.434.1h0a.314.314,0,0,1-.094.435l-.622.4A.318.318,0,0,1,79.508,330.74Z" transform="translate(-65.571 -326.527)" fill="#35468e"/>
        <path id="Trazado_18440" data-name="Trazado 18440" d="M78.252,331.543h0a.316.316,0,0,1,.1-.436l.62-.4a.316.316,0,0,1,.436.1h0a.315.315,0,0,1-.1.436l-.62.4A.319.319,0,0,1,78.252,331.543Z" transform="translate(-66.05 -326.22)" fill="#35468e"/>
        <path id="Trazado_18441" data-name="Trazado 18441" d="M76.995,332.347h0a.315.315,0,0,1,.1-.437l.62-.4a.315.315,0,0,1,.435.094h0a.317.317,0,0,1-.094.438l-.623.4A.316.316,0,0,1,76.995,332.347Z" transform="translate(-66.53 -325.914)" fill="#35468e"/>
        <path id="Trazado_18442" data-name="Trazado 18442" d="M75.739,333.15h0a.316.316,0,0,1,.1-.435l.622-.4a.316.316,0,0,1,.438.1h0a.314.314,0,0,1-.1.435l-.62.4A.316.316,0,0,1,75.739,333.15Z" transform="translate(-67.009 -325.608)" fill="#35468e"/>
        <path id="Trazado_18443" data-name="Trazado 18443" d="M74.482,333.954h0a.314.314,0,0,1,.1-.435l.62-.4a.317.317,0,0,1,.438.1h0a.314.314,0,0,1-.1.435l-.62.4A.315.315,0,0,1,74.482,333.954Z" transform="translate(-67.488 -325.301)" fill="#35468e"/>
        <path id="Trazado_18444" data-name="Trazado 18444" d="M73.225,334.758h0a.319.319,0,0,1,.1-.438l.62-.4a.318.318,0,0,1,.438.1h0a.318.318,0,0,1-.1.437l-.624.4A.318.318,0,0,1,73.225,334.758Z" transform="translate(-67.967 -324.995)" fill="#35468e"/>
        <path id="Trazado_18445" data-name="Trazado 18445" d="M71.967,335.56h0a.316.316,0,0,1,.1-.434l.624-.4a.315.315,0,0,1,.435.1h0a.317.317,0,0,1-.1.437l-.622.4A.317.317,0,0,1,71.967,335.56Z" transform="translate(-68.446 -324.688)" fill="#35468e"/>
        <path id="Trazado_18446" data-name="Trazado 18446" d="M70.711,336.364h0a.315.315,0,0,1,.1-.435l.62-.4a.316.316,0,0,1,.436.1h0a.315.315,0,0,1-.1.437l-.62.4A.316.316,0,0,1,70.711,336.364Z" transform="translate(-68.926 -324.382)" fill="#35468e"/>
        <path id="Trazado_18447" data-name="Trazado 18447" d="M69.455,337.168h0a.319.319,0,0,1,.1-.438l.623-.4a.315.315,0,0,1,.435.1h0a.314.314,0,0,1-.1.434l-.623.4A.316.316,0,0,1,69.455,337.168Z" transform="translate(-69.405 -324.076)" fill="#35468e"/>
      </g>
      <g id="Grupo_7919" data-name="Grupo 7919" transform="translate(12.466 12.452)">
        <path id="Trazado_18448" data-name="Trazado 18448" d="M85.407,331.749h0a.315.315,0,0,0,.432.108l.633-.381a.314.314,0,0,0,.108-.432h0a.312.312,0,0,0-.432-.106l-.634.38A.313.313,0,0,0,85.407,331.749Z" transform="translate(-65.945 -330.89)" fill="#35468e"/>
        <path id="Trazado_18449" data-name="Trazado 18449" d="M84.127,332.519h0a.317.317,0,0,0,.434.109l.633-.381a.318.318,0,0,0,.108-.434h0a.317.317,0,0,0-.435-.108l-.631.381A.317.317,0,0,0,84.127,332.519Z" transform="translate(-66.432 -330.597)" fill="#35468e"/>
        <path id="Trazado_18450" data-name="Trazado 18450" d="M82.85,333.291h0a.317.317,0,0,0,.434.106l.631-.381a.317.317,0,0,0,.109-.434h0a.317.317,0,0,0-.434-.106l-.633.38A.32.32,0,0,0,82.85,333.291Z" transform="translate(-66.919 -330.303)" fill="#35468e"/>
        <path id="Trazado_18451" data-name="Trazado 18451" d="M81.573,334.059h0a.315.315,0,0,0,.434.106l.633-.378a.318.318,0,0,0,.106-.435h0a.317.317,0,0,0-.432-.108l-.633.381A.314.314,0,0,0,81.573,334.059Z" transform="translate(-67.407 -330.01)" fill="#35468e"/>
        <path id="Trazado_18452" data-name="Trazado 18452" d="M80.3,334.829h0a.316.316,0,0,0,.432.108l.633-.381a.317.317,0,0,0,.108-.434h0a.319.319,0,0,0-.435-.106l-.631.38A.317.317,0,0,0,80.3,334.829Z" transform="translate(-67.894 -329.716)" fill="#35468e"/>
        <path id="Trazado_18453" data-name="Trazado 18453" d="M79.016,335.6h0a.313.313,0,0,0,.434.108l.631-.38a.314.314,0,0,0,.109-.432h0a.316.316,0,0,0-.434-.109l-.633.381A.315.315,0,0,0,79.016,335.6Z" transform="translate(-68.381 -329.423)" fill="#35468e"/>
        <path id="Trazado_18454" data-name="Trazado 18454" d="M77.741,336.368h0a.314.314,0,0,0,.432.108l.633-.38a.317.317,0,0,0,.106-.435h0a.318.318,0,0,0-.432-.108l-.633.383A.311.311,0,0,0,77.741,336.368Z" transform="translate(-68.869 -329.129)" fill="#35468e"/>
        <path id="Trazado_18455" data-name="Trazado 18455" d="M76.461,337.137h0a.316.316,0,0,0,.434.109l.631-.383a.311.311,0,0,0,.108-.43h0a.316.316,0,0,0-.434-.111l-.631.383A.313.313,0,0,0,76.461,337.137Z" transform="translate(-69.356 -328.836)" fill="#35468e"/>
        <path id="Trazado_18456" data-name="Trazado 18456" d="M75.185,337.908h0a.315.315,0,0,0,.431.108l.633-.381a.315.315,0,0,0,.108-.434h0a.315.315,0,0,0-.432-.106l-.633.38A.315.315,0,0,0,75.185,337.908Z" transform="translate(-69.843 -328.542)" fill="#35468e"/>
        <path id="Trazado_18457" data-name="Trazado 18457" d="M73.907,338.677h0a.316.316,0,0,0,.432.11l.633-.384a.312.312,0,0,0,.108-.431h0a.313.313,0,0,0-.434-.106l-.631.38A.312.312,0,0,0,73.907,338.677Z" transform="translate(-70.33 -328.249)" fill="#35468e"/>
        <path id="Trazado_18458" data-name="Trazado 18458" d="M72.627,339.448h0a.318.318,0,0,0,.435.106l.631-.38a.319.319,0,0,0,.108-.434h0a.317.317,0,0,0-.434-.108l-.633.38A.321.321,0,0,0,72.627,339.448Z" transform="translate(-70.817 -327.955)" fill="#35468e"/>
        <path id="Trazado_18459" data-name="Trazado 18459" d="M71.351,340.217h0a.317.317,0,0,0,.432.109l.633-.381a.316.316,0,0,0,.109-.434h0a.315.315,0,0,0-.434-.108l-.633.38A.315.315,0,0,0,71.351,340.217Z" transform="translate(-71.305 -327.662)" fill="#35468e"/>
      </g>
      <g id="Grupo_7920" data-name="Grupo 7920" transform="translate(30.712 6.74)">
        <path id="Trazado_18460" data-name="Trazado 18460" d="M88.553,327.908a2.957,2.957,0,0,0-3.9-.707.291.291,0,0,0,.138.537,2.943,2.943,0,0,1,2.188,1.149Z" transform="translate(-84.514 -326.755)" fill="#3397d3"/>
        <path id="Trazado_18461" data-name="Trazado 18461" d="M88.1,327.956l-1.576.978a2.949,2.949,0,0,1,.059,2.47.292.292,0,0,0,.42.363A2.957,2.957,0,0,0,88.1,327.956Z" transform="translate(-83.747 -326.298)" fill="#3397d3"/>
      </g>
    </g>
    <path id="Trazado_18462" data-name="Trazado 18462" d="M104.932,373.34a1.051,1.051,0,0,0-.566-.926V360.072a1.065,1.065,0,0,0,.566-.934v-2.68a1.087,1.087,0,0,0-1.1-1.057h-2.681a1.062,1.062,0,0,0-.941.566H95.872v-2.3a2,2,0,0,0-1.448-1.977v19.167a.613.613,0,0,0-.611.612V374.9a.613.613,0,0,0,.612.612h3.426a.613.613,0,0,0,.613-.612c0-.019,0-.041,0-.062h1.532v2.34a.691.691,0,0,0,.624.684.421.421,0,0,0,.349-.441v-.326a1.041,1.041,0,0,0,.186.018h2.681l.035,0v-2.272h1.062Z" transform="translate(-42.576 -301.056)" fill="#1a1413" opacity="0.2" style="mix-blend-mode: overlay;isolation: isolate"/>
    <g id="Grupo_7925" data-name="Grupo 7925" transform="translate(26.825 51.612)">
      <g id="Grupo_7922" data-name="Grupo 7922" transform="translate(4.038 23.483)">
        <path id="Trazado_18463" data-name="Trazado 18463" d="M81.818,370.657c0,.246.083.139-.164.139H79.427c-.246,0-.363.106-.363-.139v-1.238h2.754Z" transform="translate(-79.064 -369.39)" fill="#356b7b"/>
        <path id="Trazado_18464" data-name="Trazado 18464" d="M95.285,370.665c0,.246-.327.115-.572.115H92.484c-.243,0-1.343.131-1.343-.115V369.4h4.144Z" transform="translate(-74.459 -369.398)" fill="#356b7b"/>
      </g>
      <path id="Trazado_18465" data-name="Trazado 18465" d="M91.429,357.923H83.141V353.4c0-.587.709-1,1.294-1h6.708c.586,0,.286.41.286,1Z" transform="translate(-73.471 -352.398)" fill="none" stroke="#355869" stroke-width="10"/>
      <rect id="Rectángulo_977" data-name="Rectángulo 977" width="29.008" height="20.72" transform="translate(0 2.763)" fill="#268d9d"/>
      <g id="Grupo_7923" data-name="Grupo 7923" transform="translate(0.001 2.763)">
        <path id="Trazado_18466" data-name="Trazado 18466" d="M81.007,355.507a3.789,3.789,0,0,1-3.774,3.768s-1.093-.452-1.093-1.039v-2.681a1.2,1.2,0,0,1,1.123-1.158h2.681A1.1,1.1,0,0,1,81.007,355.507Z" transform="translate(-76.141 -354.398)" fill="#356b7b"/>
        <path id="Trazado_18467" data-name="Trazado 18467" d="M93.391,355.442a3.9,3.9,0,0,0,3.927,3.735,1.245,1.245,0,0,0,1.253-1.072v-2.68c0-.587-.851-1.028-1.438-1.028H94.452A1.046,1.046,0,0,0,93.391,355.442Z" transform="translate(-69.563 -354.398)" fill="#356b7b"/>
        <path id="Trazado_18468" data-name="Trazado 18468" d="M81.007,370.493a3.9,3.9,0,0,0-3.774-3.888.977.977,0,0,0-1.093.919V370.2c0,.587.537,1.64,1.123,1.64h2.681C80.531,371.844,81.007,371.082,81.007,370.493Z" transform="translate(-76.141 -349.743)" fill="#356b7b"/>
        <path id="Trazado_18469" data-name="Trazado 18469" d="M93.391,370.533a4,4,0,0,1,3.927-3.857c.591,0,1.253.363,1.253.949v2.682a1.9,1.9,0,0,1-1.438,1.51H94.452C93.865,371.817,93.391,371.117,93.391,370.533Z" transform="translate(-69.563 -349.716)" fill="#356b7b"/>
      </g>
      <g id="Grupo_7924" data-name="Grupo 7924" transform="translate(3.989 7.598)">
        <rect id="Rectángulo_978" data-name="Rectángulo 978" width="6.478" height="4.164" transform="translate(0 3.226) rotate(-19.503)" fill="#e85129" stroke="#9fd5d9" stroke-linejoin="round" stroke-width="3"/>
        <rect id="Rectángulo_979" data-name="Rectángulo 979" width="5.525" height="4.144" transform="translate(14.659)" fill="#f0bd24" stroke="#9fd5d9" stroke-linejoin="round" stroke-width="3"/>
        <path id="Trazado_18470" data-name="Trazado 18470" d="M90.606,367.144a2.571,2.571,0,1,1-2.572-2.569A2.573,2.573,0,0,1,90.606,367.144Z" transform="translate(-76.575 -355.352)" fill="#1dad88" stroke="#9fd5d9" stroke-width="3"/>
      </g>
    </g>
    <path id="Trazado_18471" data-name="Trazado 18471" d="M87.653,371.716v-7.392a.724.724,0,0,0-.722-.721H79.967v4.223a1.091,1.091,0,0,0-.377.843v2.681a.946.946,0,0,0,.957,1.026h2.681a1.1,1.1,0,0,0,.135-.01v.07h3.209V372h1.021A.716.716,0,0,0,87.653,371.716Z" transform="translate(-48 -296.513)" fill="#1a1413" opacity="0.2" style="mix-blend-mode: overlay;isolation: isolate"/>
    <g id="Grupo_7926" data-name="Grupo 7926" transform="translate(14.481 67.974)">
      <rect id="Rectángulo_980" data-name="Rectángulo 980" width="30.374" height="8.834" rx="0.735" fill="#375b7c"/>
      <rect id="Rectángulo_981" data-name="Rectángulo 981" width="30.374" height="1.768" transform="translate(0 3.532)" fill="#384d6a"/>
      <path id="Trazado_18472" data-name="Trazado 18472" d="M84.152,367.595v2.454H74.821v-2.454" transform="translate(-64.299 -362.965)" fill="none" stroke="#83bad6" stroke-linejoin="round" stroke-width="9"/>
    </g>
  </g>
</svg>
